<?xml version="1.0" standalone="no"?>
<!DOCTYPE svg PUBLIC "-//W3C//DTD SVG 1.1//EN" "http://www.w3.org/Graphics/SVG/1.1/DTD/svg11.dtd" >
<svg xmlns="http://www.w3.org/2000/svg">
<metadata>Generated by IcoMoon</metadata>
<defs>
<font id="iconfont" horiz-adv-x="1024">
<font-face units-per-em="1024" ascent="960" descent="-64" />
<missing-glyph horiz-adv-x="1024" />
<glyph unicode="&#x20;" d="" horiz-adv-x="512" />
<glyph unicode="&#xe600;" d="M512 780c88.68 0 172.052-34.536 234.76-97.24 62.706-62.708 97.24-146.080 97.24-234.76s-34.534-172.052-97.24-234.76c-62.708-62.704-146.080-97.24-234.76-97.24s-172.052 34.536-234.76 97.24c-62.706 62.708-97.24 146.080-97.24 234.76s34.534 172.052 97.24 234.76c62.708 62.704 146.080 97.24 234.76 97.24M512 860c-227.542 0-412-184.458-412-412s184.458-412 412-412 412 184.458 412 412-184.458 412-412 412v0zM730.034 529.676c-6.978 59.298-30.484 67.472-77.264 70.652-66.506 4.53-214.986 4.534-281.542 0-46.778-3.18-70.286-11.354-77.264-70.652-5.178-44.028-5.196-119.17 0-163.35 6.978-59.3 30.486-67.474 77.264-70.658 66.554-4.528 215.036-4.524 281.542 0 46.78 3.184 70.286 11.358 77.264 70.658 5.176 44.028 5.194 119.168 0 163.35zM467.802 386.032v123.806l118.728-61.906-118.728-61.9z" />
<glyph unicode="&#xe601;" d="M512 860c-227.542 0-412-184.458-412-412s184.458-412 412-412 412 184.458 412 412-184.458 412-412 412zM754.26 357.25c-7.754-65.888-33.874-74.97-85.85-78.508-73.896-5.028-238.874-5.032-312.822 0-51.976 3.538-78.094 12.62-85.848 78.508-5.774 49.090-5.754 132.582 0 181.498 7.754 65.89 33.872 74.972 85.848 78.506 73.95 5.036 238.926 5.032 312.822 0 51.976-3.534 78.096-12.616 85.85-78.506 5.774-49.088 5.754-132.578 0-181.498zM462.89 516.706l131.92-68.784-131.92-68.778v137.562z" />
<glyph unicode="&#xe602;" d="M512 860c-227.542 0-412-184.458-412-412s184.458-412 412-412c227.54 0 412 184.458 412 412s-184.46 412-412 412zM512 116c-183.488 0-332 148.488-332 332 0 183.486 148.488 332 332 332 183.476 0 332-148.488 332-332 0-183.478-148.49-332-332-332zM378.906 676.626h26.49l18.136-68.062 16.852 68.062h26.722l-30.608-101.214v-69.064h-26.304v69.064l-31.288 101.214zM465.916 537.676c0-22.136 11.568-33.66 34.218-33.66 18.782 0 33.574 12.56 33.574 33.66v61.572c0 19.66-14.642 33.746-33.574 33.746-20.568 0-34.218-13.592-34.218-33.746v-61.572zM489.95 597.174c0 6.876 3.166 11.978 9.726 11.978 7.162 0 10.226-4.95 10.226-11.978v-58.428c0-6.838-3.486-11.892-9.768-11.892-6.452 0-10.186 5.276-10.186 11.892v58.428zM596.84 631.958v-95.344c-2.844-3.564-9.176-9.406-13.73-9.406-4.998 0-6.22 3.41-6.22 8.462v96.29h-23.354v-104.99c0-12.408 3.792-22.436 16.312-22.436 7.066 0 16.876 3.676 26.992 15.68v-13.866h23.354v125.61h-23.354zM562.488 374.46c1.586-2.094 2.376-5.156 2.376-9.192v-61.77c0-3.81-0.642-6.558-1.926-8.242-2.452-3.21-7.76-3.066-11.378-1.232-1.702 0.858-3.456 2.26-5.268 4.208v74.548c1.512 1.642 3.040 2.86 4.588 3.646 3.894 1.968 8.918 1.586 11.608-1.966zM637.36 377.172c-8.242 0-9.936-5.8-9.936-14.022v-12.112h19.65v12.112c0 8.084-1.714 14.022-9.714 14.022zM705.192 288.924c0-29.576-23.976-53.55-53.55-53.55h-275.282c-29.574 0-53.548 23.974-53.548 53.55v135.284c0 29.578 23.974 53.552 53.548 53.552h275.28c29.574 0 53.55-23.974 53.55-53.552v-135.284zM413.042 414.094h25.914v23.54h-76.874v-23.54h25.91v-138.63h25.048v138.63zM502.136 395.090h-22.242v-90.804c-2.712-3.396-8.74-8.958-13.076-8.958-4.758 0-5.924 3.246-5.924 8.060v91.702h-22.244v-99.988c0-24.274 16.458-24.42 28.45-17.55 4.434 2.542 8.696 6.25 12.794 11.12v-13.208h22.242v119.626zM587.756 366.614c0 16.226-5.392 29.988-21.684 29.988-7.946 0-14.758-5.062-19.78-11.178v52.208h-22.456v-162.17h22.456v9.196c6.202-7.732 12.984-10.708 21.128-10.708 14.796 0 20.334 11.498 20.334 26.296v66.368zM669.964 362.93c0 21.622-10.31 35.184-31.648 35.184-20.064 0-33.784-14.416-33.784-35.184v-53.696c0-21.54 10.862-37.012 32.098-37.012 23.44 0 33.334 13.96 33.334 37.012v8.986h-22.89v-8.316c0-10.416-0.548-16.734-9.938-16.734-8.954 0-9.712 7.762-9.712 16.734v22.566h42.542v30.46z" />
<glyph unicode="&#xe603;" d="M575.26 386.122c-9.346 0-17.362-5.958-23.268-13.152v61.422h-26.42v-190.788h26.42v10.818c7.294-9.096 15.276-12.598 24.856-12.598 17.41 0 23.924 13.526 23.924 30.938v78.078c0 19.090-6.346 35.282-25.512 35.282zM573.842 276.59c0-4.484-0.758-7.718-2.268-9.7-2.882-3.776-9.128-3.606-13.386-1.45-2 1.008-4.064 2.66-6.196 4.95v87.704c1.778 1.932 3.574 3.364 5.396 4.29 4.58 2.316 10.492 1.868 13.656-2.312 1.866-2.46 2.796-6.066 2.796-10.812v-72.67zM485.706 553.348v68.74c0 8.088 3.724 14.092 11.444 14.092 8.424 0 12.032-5.824 12.032-14.092v-68.74c0-8.046-4.102-13.992-11.492-13.992-7.592 0.002-11.984 6.208-11.984 13.992zM473.876 384.34h26.168v-140.736h-26.168v15.538c-4.822-5.726-9.836-10.090-15.052-13.082-14.106-8.080-33.468-7.906-33.468 20.648v117.632h26.168v-107.882c0-5.664 1.374-9.484 6.97-9.484 5.1 0 12.192 6.542 15.382 10.54v106.826zM425.71 406.7h-30.486v-163.096h-29.468v163.096h-30.484v27.692h90.44v-27.692zM660.254 387.898c-23.606 0-39.744-16.96-39.744-41.394v-63.17c0-25.338 12.778-43.542 37.762-43.542 27.576 0 39.214 16.422 39.214 43.542v10.572h-26.93v-9.784c0-12.254-0.644-19.688-11.69-19.688-10.536 0-11.428 9.13-11.428 19.688v26.548h50.046v35.832c0.002 25.44-12.126 41.396-37.23 41.396zM670.556 332.518h-23.116v14.248c0 9.672 1.992 16.494 11.69 16.494 9.41 0 11.428-6.982 11.428-16.494v-14.248zM512 860c-227.542 0-412-184.458-412-412s184.458-412 412-412c227.54 0 412 184.458 412 412s-184.46 412-412 412zM560.512 663.010h27.474v-113.282c0-5.944 1.438-9.956 7.318-9.956 5.358 0 12.806 6.874 16.154 11.066v112.17h27.474v-147.778h-27.474v16.314c-11.904-14.122-23.444-18.448-31.756-18.448-14.728 0-19.192 11.798-19.192 26.396v123.518zM497.688 664.226c22.272 0 39.5-16.572 39.5-39.702v-72.436c0-24.822-17.404-39.598-39.5-39.598-26.648 0-40.258 13.556-40.258 39.598v72.436c0 23.71 16.058 39.702 40.258 39.702zM386.23 715.56l21.338-80.074 19.824 80.074h31.44l-36.010-119.076v-81.252h-30.946v81.252l-36.812 119.076h31.166zM738.93 259.44c0-34.794-28.208-63-63-63h-323.86c-34.794 0-63 28.206-63 63v159.158c0 34.796 28.206 63.002 63 63.002h323.86c34.792 0 63-28.206 63-63.002v-159.158z" />
<glyph unicode="&#xe604;" d="M467.418 368.378h29.074v-156.376h-29.074v17.262c-5.36-6.362-10.93-11.208-16.726-14.536-15.672-8.976-37.188-8.784-37.188 22.946v130.704h29.076v-119.872c0-6.292 1.526-10.54 7.744-10.54 5.666 0 13.546 7.27 17.094 11.71v118.702zM413.902 423.988h-100.49v-30.768h33.874v-181.216h32.742v181.216h33.876v30.768zM608.414 331.156v-86.754c0-19.348-7.238-34.376-26.582-34.376-10.646 0-19.512 3.89-27.618 13.996v-12.020h-29.354v211.986h29.356v-68.244c6.562 7.994 15.468 14.612 25.852 14.612 21.294 0 28.346-17.988 28.346-39.2zM578.49 329.396c0 5.276-1.034 9.28-3.108 12.016-3.516 4.642-10.084 5.142-15.172 2.568-2.026-1.028-4.022-2.62-5.996-4.766v-97.45c2.368-2.542 4.66-4.376 6.882-5.496 4.73-2.396 11.672-2.586 14.876 1.61 1.676 2.2 2.518 5.792 2.518 10.778v80.74zM493.876 540.62c8.212 0 12.77 6.606 12.77 15.546v76.376c0 9.188-4.008 15.658-13.37 15.658-8.576 0-12.712-6.67-12.712-15.658v-76.376c-0.002-8.65 4.878-15.546 13.312-15.546zM924 760v-624c0-55.228-44.77-100-100-100h-624c-55.226 0-100 44.772-100 100v624c0 55.228 44.774 100 100 100h624c55.23 0 100-44.772 100-100zM563.68 540.77c0-16.22 4.958-29.33 21.324-29.33 9.236 0 22.056 4.806 35.286 20.498v-18.126h30.528v164.198h-30.528v-124.634c-3.72-4.66-11.998-12.296-17.95-12.296-6.536 0-8.132 4.458-8.132 11.062v125.868h-30.528v-137.24zM449.144 635.25v-80.484c0-28.936 15.122-44 44.73-44 24.55 0 43.888 16.42 43.888 44v80.484c0 25.7-19.142 44.112-43.888 44.112-26.886 0-44.73-17.768-44.73-44.112zM335.406 736.4l40.902-132.306v-90.28h34.382v90.28l40.012 132.306h-34.934l-22.028-88.97-23.704 88.97h-34.63zM761.922 406.442c0 38.662-31.34 70.002-70 70.002h-359.844c-38.66 0-70-31.34-70-70.002v-176.842c0-38.66 31.34-70 70-70h359.844c38.66 0 70 31.34 70 70v176.842zM715.876 326.338v-39.812h-55.61v-29.5c0-11.73 0.992-21.876 12.698-21.876 12.274 0 12.988 8.26 12.988 21.876v10.87h29.924v-11.746c0-30.132-12.934-48.378-43.572-48.378-27.762 0-41.958 20.226-41.958 48.378v70.19c0 27.146 17.934 45.994 44.16 45.994 27.89-0.002 41.37-17.732 41.37-45.996zM685.952 326.628c0 10.566-2.24 18.326-12.698 18.326-10.774 0-12.988-7.58-12.988-18.326v-15.832h25.686v15.832z" />
<glyph unicode="&#xe605;" d="M580.066 370.356c-10.382 0-19.29-6.618-25.852-14.612v68.244h-29.354v-211.984h29.356v12.020c8.106-10.106 16.97-13.996 27.618-13.996 19.344 0 26.582 15.028 26.582 34.376v86.754c-0.002 21.21-7.054 39.198-28.35 39.198zM578.49 248.656c0-4.984-0.842-8.578-2.518-10.778-3.204-4.196-10.144-4.006-14.876-1.61-2.222 1.12-4.516 2.954-6.882 5.496v97.45c1.974 2.146 3.97 3.738 5.996 4.766 5.088 2.574 11.656 2.074 15.172-2.568 2.074-2.736 3.108-6.74 3.108-12.016v-80.74zM467.418 368.378h29.074v-156.376h-29.074v17.262c-5.36-6.362-10.93-11.208-16.726-14.536-15.672-8.976-37.188-8.784-37.188 22.946v130.704h29.076v-119.872c0-6.292 1.526-10.54 7.744-10.54 5.666 0 13.546 7.27 17.094 11.71v118.702zM413.902 393.22h-33.876v-181.216h-32.742v181.216h-33.874v30.768h100.49v-30.768zM480.562 556.166v76.376c0 8.986 4.136 15.658 12.712 15.658 9.362 0 13.37-6.47 13.37-15.658v-76.376c0-8.94-4.556-15.546-12.77-15.546-8.432 0-13.312 6.896-13.312 15.546zM100 860v-824h824v824h-824zM563.68 678.010h30.528v-125.868c0-6.604 1.598-11.062 8.132-11.062 5.952 0 14.228 7.636 17.95 12.296v124.634h30.528v-164.198h-30.528v18.126c-13.228-15.692-26.048-20.498-35.286-20.498-16.366 0-21.324 13.11-21.324 29.33v137.24zM493.876 679.362c24.746 0 43.888-18.412 43.888-44.112v-80.484c0-27.58-19.338-44-43.888-44-29.61 0-44.73 15.064-44.73 44v80.484c-0.002 26.344 17.842 44.112 44.73 44.112zM370.036 736.4l23.708-88.97 22.028 88.97h34.934l-40.012-132.306v-90.28h-34.382v90.28l-40.906 132.306h34.63zM761.922 229.6c0-38.66-31.34-70-70-70h-359.844c-38.66 0-70 31.34-70 70v176.842c0 38.662 31.34 70.002 70 70.002h359.844c38.66 0 70-31.34 70-70.002v-176.842zM674.504 372.332c-26.226 0-44.16-18.848-44.16-45.994v-70.19c0-28.152 14.198-48.378 41.958-48.378 30.638 0 43.572 18.246 43.572 48.378v11.746h-29.924v-10.87c0-13.616-0.714-21.876-12.988-21.876-11.706 0-12.698 10.144-12.698 21.876v29.5h55.61v39.812c0.002 28.266-13.478 45.996-41.37 45.996zM685.952 310.796h-25.686v15.832c0 10.746 2.214 18.326 12.988 18.326 10.458 0 12.698-7.76 12.698-18.326v-15.832z" />
<glyph unicode="&#xe606;" d="M924 448c0-227.542-184.458-412-412-412s-412 184.458-412 412 184.458 412 412 412 412-184.458 412-412zM844 448c0 183.51-148.516 332-332 332-183.51 0-332-148.518-332-332 0-183.51 148.516-332 332-332 183.51 0 332 148.518 332 332zM650.658 235.020l-134.654 134.648-134.658-134.664-72.328 72.372 134.628 134.644-134.642 134.634 72.37 72.328 134.62-134.602 134.6 134.618 72.386-72.34-134.624-134.63 134.64-134.62-72.338-72.388z" />
<glyph unicode="&#xe607;" d="M512 860c-227.542 0-412-184.458-412-412s184.458-412 412-412 412 184.458 412 412-184.458 412-412 412zM668.248 202.91l-154.244 154.234-154.246-154.254-82.85 82.898 154.212 154.234-154.23 154.22 82.896 82.848 154.206-154.184 154.18 154.204 82.918-82.864-154.208-154.216 154.226-154.204-82.86-82.916z" />
<glyph unicode="&#xe608;" d="M100 602.802c105.44 105.44 251.104 170.656 412 170.656s306.56-65.216 412-170.656l-70-70c-87.526 87.526-208.442 141.66-342 141.66-133.56 0-254.474-54.134-342-141.66l-70 70zM296.392 406.408c55.178 55.18 131.408 89.308 215.608 89.308s160.43-34.128 215.608-89.308l71.87 71.872c-73.57 73.574-175.208 119.078-287.476 119.078s-213.906-45.504-287.476-119.078l71.866-71.872zM422 280.802c23.034 23.034 54.854 37.28 90 37.28s66.966-14.246 90-37.28l70.626 70.624c-41.108 41.108-97.898 66.538-160.626 66.538s-119.52-25.43-160.626-66.538l70.626-70.624zM512 247.724c-34.568 0-62.598-28.020-62.598-62.594 0-34.57 28.030-62.59 62.598-62.59 34.566 0 62.592 28.020 62.592 62.59 0 34.576-28.026 62.594-62.592 62.594z" />
<glyph unicode="&#xe609;" d="M512 780c183.482 0 332-148.486 332-332 0-183.484-148.486-332-332-332-183.484 0-332 148.486-332 332 0 183.48 148.486 332 332 332M512 860c-227.542 0-412-184.458-412-412s184.458-412 412-412 412 184.458 412 412c0 227.542-184.458 412-412 412v0zM435.92 326.622c20.494 20.494 48.806 33.17 80.080 33.17s59.586-12.676 80.080-33.17l-80.080-80.080-80.080 80.080zM398.958 363.582c29.956 29.954 71.336 48.48 117.042 48.48 45.708 0 87.088-18.528 117.042-48.48l49.28 49.28c-42.564 42.566-101.366 68.892-166.32 68.892-64.954 0-123.754-26.326-166.32-68.892l49.276-49.28zM312.718 449.82c52.024 52.026 123.894 84.202 203.282 84.202s151.254-32.176 203.28-84.202l50.512 50.512c-64.952 64.952-154.68 105.124-253.792 105.124-99.114 0-188.842-40.174-253.792-105.124l50.51-50.512z" />
<glyph unicode="&#xe60a;" d="M512 860c-227.542 0-412-184.458-412-412s184.458-412 412-412 412 184.458 412 412c0 227.542-184.458 412-412 412zM516 218.070l-91 91c23.29 23.29 55.462 37.694 91 37.694s67.712-14.404 91-37.694l-91-91zM649 351.070c-34.038 34.040-81.060 55.092-133.002 55.092-51.938 0-98.96-21.052-133-55.092l-56 56c48.372 48.372 115.192 78.288 189 78.288 73.812 0 140.632-29.916 189.002-78.288l-56-56zM747 449.070c-59.12 59.118-140.788 95.682-231 95.682-90.21 0-171.882-36.564-231-95.682l-57.4 57.4c73.808 73.808 175.774 119.46 288.4 119.46s214.592-45.652 288.4-119.46l-57.4-57.4z" />
<glyph unicode="&#xe60b;" d="M382 286.672c33.27 33.27 79.232 53.848 130 53.848s96.73-20.578 130-53.848l-130-130-130 130zM325.764 342.908c47.662 47.662 113.506 77.14 186.234 77.14 72.73 0 138.574-29.478 186.236-77.14l78.414 78.414c-67.73 67.73-161.296 109.622-264.65 109.622-103.352 0-196.918-41.89-264.648-109.622l78.414-78.414zM512 699.328c-133.022 0-257.678-48.054-354.408-131.68l37.34-37.34c88.458 75.316 199.604 116.364 317.068 116.364s228.61-41.046 317.068-116.364l37.34 37.34c-96.902 83.776-221.614 131.68-354.408 131.68M512 739.328c160.896 0 306.56-65.216 412-170.656l-93.802-93.802c-81.434 81.436-193.934 131.802-318.198 131.802s-236.764-50.368-318.198-131.802l-93.802 93.802c105.44 105.44 251.104 170.656 412 170.656v0z" />
<glyph unicode="&#xe60c;" d="M512 780c88.68 0 172.052-34.534 234.76-97.24 62.706-62.708 97.24-146.080 97.24-234.76 0-88.68-34.534-172.052-97.24-234.76-62.708-62.704-146.080-97.24-234.76-97.24s-172.052 34.536-234.76 97.24c-62.706 62.708-97.24 146.080-97.24 234.76 0 88.68 34.534 172.052 97.24 234.76 62.708 62.706 146.080 97.24 234.76 97.24M512 860c-227.542 0-412-184.458-412-412s184.458-412 412-412 412 184.458 412 412-184.458 412-412 412zM306.3 459.090v129.010l156.546 21.958v-150.968h-156.546zM485.032 459.090h208.67v183.35l-208.67-29.272v-154.078zM462.848 436.91h-156.548v-129.010l156.546-21.958v150.968zM485.032 436.91v-154.082l208.67-29.266v183.348h-208.67z" />
<glyph unicode="&#xe60d;" d="M512 860c-227.542 0-412-184.458-412-412s184.458-412 412-412 412 184.458 412 412-184.458 412-412 412zM464.718 267.934l-173.942 24.398v143.346h173.942v-167.744zM464.718 460.322h-173.942v143.344l173.942 24.398v-167.742zM721.222 231.958l-231.856 32.52v171.202h231.856v-203.722zM721.222 460.322h-231.854v171.2l231.856 32.522v-203.722z" />
<glyph unicode="&#xe60e;" d="M512.004 860c-227.546 0-412.006-184.458-412.006-412.002 0-227.54 184.46-411.998 412.006-411.998 227.54 0 411.998 184.458 411.998 411.998 0 227.544-184.46 412.002-411.998 412.002zM451 718.416h122v-369.998h-122v369.998zM512 157.582c-36.36 0-65.834 29.476-65.834 65.836s29.474 65.836 65.834 65.836 65.834-29.476 65.834-65.836-29.474-65.836-65.834-65.836z" />
<glyph unicode="&#xe60f;" d="M457.1 690.376h109.8v-333h-109.8v333zM512 189.624c-32.724 0-59.252 26.528-59.252 59.25 0 32.724 26.528 59.254 59.252 59.254 32.722 0 59.25-26.53 59.25-59.254 0-32.722-26.528-59.25-59.25-59.25zM512 780c183.484 0 332-148.49 332-332 0-183.482-148.49-332-332-332-183.484 0-332 148.49-332 332 0 183.482 148.49 332 332 332zM512 860c-227.542 0-412-184.458-412-412s184.458-412 412-412 412 184.458 412 412-184.458 412-412 412z" />
<glyph unicode="&#xe610;" d="M512.004 860c-227.544 0-412.004-184.458-412.004-412.002 0-227.54 184.46-411.998 412.004-411.998 227.538 0 411.996 184.458 411.996 411.998 0 227.544-184.458 412.002-411.996 412.002zM512.92 162.964c-32.414 0-58.69 26.278-58.69 58.692 0 32.41 26.276 58.684 58.69 58.684 32.41 0 58.684-26.274 58.684-58.684 0-32.414-26.274-58.692-58.684-58.692zM590.466 643.522c-4.962-39.56-41.4-232.16-53.446-295.448-2.226-11.704-12.458-20.2-24.374-20.2h-0.478c-12.338 0-22.876 8.758-25.176 20.876-12.2 64.242-48.586 257.008-53.47 295.942-5.88 46.882 30.708 88.342 77.954 88.342 47.872 0 84.95-42.010 78.99-89.512z" />
<glyph unicode="&#xe611;" d="M512.004 860c-227.546 0-412.006-184.458-412.006-412.002 0-227.54 184.46-411.998 412.006-411.998 227.54 0 411.998 184.458 411.998 411.998 0 227.544-184.46 412.002-411.998 412.002zM433 712.416h158l-40-369.998h-78l-40 369.998zM512 162.002c-32.814 0-59.416 26.604-59.416 59.416 0 32.816 26.602 59.416 59.416 59.416s59.416-26.6 59.416-59.416c0-32.812-26.602-59.416-59.416-59.416z" />
<glyph unicode="&#xe612;" d="M309.294 486.542l206.708 207.062 206.702-207.062h-95.058v-77.54h-223.292v77.54h-95.060zM627.646 372.98h-223.292v-62.636h223.292v62.636zM404.354 277.458v-51.060h223.292v51.060h-223.292zM844 448c0 183.512-148.516 332-332 332-183.51 0-332-148.516-332-332 0-183.51 148.516-332 332-332 183.51 0 332 148.518 332 332zM100 448c0 227.542 184.458 412 412 412s412-184.458 412-412c0-227.542-184.458-412-412-412s-412 184.458-412 412z" />
<glyph unicode="&#xe613;" d="M512 36c227.542 0 412 184.458 412 412s-184.458 412-412 412-412-184.458-412-412 184.458-412 412-412zM640.050 202.44h-248.1v56.734h248.102v-56.734zM640.050 295.714h-248.1v69.818h248.102v-69.818zM516.004 721.56l229.668-230.070h-105.622v-86.156h-248.1v86.156h-105.622l229.676 230.070z" />
<glyph unicode="&#xe614;" d="M378.694 612.77h-113.502l246.812 247.23 246.804-247.23h-113.502v-300.62h-266.612v300.62zM173.528 250.344v-214.344h676.946v214.344h-676.946zM283.61 113.172h-30v60h30v-60zM338.11 113.172h-30v60h30v-60zM391.11 113.172h-30v60h30v-60zM741.778 108.172c-19.33 0-35 15.67-35 35s15.67 35 35 35 35-15.67 35-35-15.67-35-35-35z" />
<glyph unicode="&#xe615;" d="M924 703.554c-30.316-13.448-62.898-22.538-97.094-26.62 34.898 20.922 61.708 54.050 74.328 93.528-32.666-19.374-68.844-33.442-107.352-41.022-30.836 32.856-74.772 53.382-123.396 53.382-109.12 0-189.336-101.832-164.674-207.574-140.5 7.048-265.068 74.354-348.446 176.628-44.284-75.966-22.97-175.382 52.316-225.7-27.708 0.876-53.782 8.482-76.57 21.148-1.834-78.324 54.292-151.562 135.59-167.898-23.792-6.474-49.852-7.956-76.34-2.894 21.508-67.16 83.944-116.036 157.92-117.398-71.074-55.698-160.59-80.576-250.282-70.006 74.812-47.964 163.674-75.954 259.142-75.954 313.864 0 491.19 265.102 480.502 502.87 33.034 23.834 61.692 53.608 84.356 87.51z" />
<glyph unicode="&#xe616;" d="M512 780c183.484 0 332-148.488 332-332 0-183.482-148.49-332-332-332-183.486 0-332 148.49-332 332 0 183.482 148.488 332 332 332M512 860c-227.542 0-412-184.458-412-412s184.458-412 412-412 412 184.458 412 412-184.458 412-412 412v0zM737.594 556.006c-15.424-6.84-31.998-11.464-49.394-13.542 17.752 10.644 31.392 27.496 37.812 47.58-16.622-9.856-35.024-17.012-54.614-20.87-15.686 16.714-38.040 27.158-62.774 27.158-55.512 0-96.32-51.804-83.778-105.6-71.472 3.586-134.846 37.826-177.26 89.856-22.53-38.646-11.688-89.22 26.616-114.818-14.098 0.446-27.364 4.316-38.956 10.758-0.932-39.844 27.622-77.104 68.978-85.416-12.104-3.292-25.362-4.046-38.838-1.47 10.944-34.168 42.708-59.032 80.34-59.724-36.158-28.338-81.698-40.99-127.322-35.614 38.056-24.4 83.264-38.64 131.83-38.64 159.668 0 249.878 134.866 244.444 255.822 16.804 12.126 31.384 27.274 42.916 44.52z" />
<glyph unicode="&#xe617;" d="M512 860c-227.542 0-412-184.458-412-412s184.458-412 412-412 412 184.458 412 412-184.458 412-412 412zM719.198 518.988c6.042-134.398-94.192-284.248-271.604-284.248-53.962 0-104.192 15.822-146.476 42.932 50.694-5.974 101.292 8.088 141.468 39.572-41.814 0.772-77.108 28.396-89.264 66.362 14.972-2.864 29.702-2.026 43.15 1.632-45.952 9.234-77.678 50.634-76.642 94.906 12.88-7.16 27.62-11.458 43.284-11.954-42.556 28.442-54.606 84.636-29.57 127.578 47.126-57.812 117.54-95.856 196.956-99.84-13.938 59.772 31.404 117.334 93.084 117.334 27.484 0 52.32-11.604 69.748-30.176 21.768 4.286 42.216 12.238 60.682 23.188-7.134-22.314-22.288-41.042-42.016-52.866 19.33 2.306 37.748 7.444 54.882 15.046-12.81-19.164-29.010-35.996-47.682-49.466z" />
<glyph unicode="&#xe618;" d="M824 860h-624c-55.228 0-100-44.772-100-100v-624c0-55.228 44.772-100 100-100h624c55.228 0 100 44.772 100 100v624c0 55.228-44.772 100-100 100zM743.884 545.75c7.106-158.118-110.816-334.406-319.536-334.406-63.486 0-122.578 18.61-172.328 50.506 59.642-7.030 119.172 9.516 166.436 46.556-49.192 0.906-90.712 33.406-105.016 78.070 17.616-3.368 34.946-2.38 50.766 1.924-54.060 10.866-91.384 59.568-90.166 111.652 15.154-8.422 32.49-13.48 50.92-14.064-50.068 33.46-64.24 99.572-34.792 150.090 55.446-68.012 138.286-112.77 231.714-117.458-16.398 70.32 36.948 138.038 109.51 138.038 32.336 0 61.552-13.65 82.058-35.5 25.608 5.040 49.666 14.396 71.388 27.278-8.394-26.252-26.22-48.282-49.43-62.196 22.74 2.714 44.408 8.758 64.568 17.702-15.068-22.544-34.124-42.344-56.092-58.192z" />
<glyph unicode="&#xe619;" d="M100 860v-824h824v824h-824zM741.884 545.75c7.106-158.118-110.816-334.406-319.536-334.406-63.486 0-122.578 18.61-172.326 50.506 59.64-7.030 119.17 9.516 166.434 46.556-49.192 0.906-90.712 33.406-105.016 78.070 17.616-3.368 34.946-2.38 50.766 1.924-54.060 10.866-91.384 59.568-90.166 111.652 15.154-8.422 32.49-13.48 50.92-14.064-50.068 33.46-64.24 99.572-34.792 150.090 55.446-68.012 138.286-112.77 231.714-117.458-16.398 70.32 36.948 138.038 109.51 138.038 32.336 0 61.552-13.65 82.058-35.5 25.608 5.040 49.666 14.396 71.388 27.278-8.394-26.252-26.22-48.282-49.43-62.196 22.74 2.714 44.408 8.758 64.568 17.702-15.068-22.544-34.124-42.344-56.092-58.192z" />
<glyph unicode="&#xe61a;" d="M814.598 786.53c-42.722 42.722-162.066 73.47-302.606 73.47-140.542 0-259.884-30.748-302.608-73.47-21.282-21.282-16.554-37.44-12.662-59.748 17.888-102.5 88.552-490.448 112.378-623.196 72.376-90.116 331.324-90.116 403.698 0 24.072 128.788 97.624 529.008 114.936 626.614 3.032 17.074 8.438 34.756-13.136 56.33zM388.198 410.398l-17.91 11.742 66.354 0.286 28.37-60.514-18.404 11.618c-26.272-41.61-37.31-64.006-28.916-90.052-66.302 65.23-58.974 79.174-29.494 126.92zM410.858 457.708l28.404 51.46c7.070 13.79 45.494 2.716 61.358-32.618l-28.97-52.474-60.792 33.632zM508.050 269.89h-62.918c-15.492-0.488-24.402 38.492-1.164 69.472h64.082v-69.472zM510.164 447.23l19.074 10.478c-23.692 43.13-37.946 63.626-64.804 68.892 89.17 26.44 94.328 14.858 125.334-35.624l18.948 9.982-28.718-60.036-69.834 6.308zM621.412 447.044l33.136-53.484c8.572-12.914-19.868-41.018-58.444-37.58l-33.752 54.474 59.060 36.59zM565.094 271.16l-0.18-21.184-37.362 58.664 38.3 53.35-0.182-21.764c49.208-0.414 74.060 1.996 91.776 22.85-20.526-90.706-34.288-91.916-92.352-91.916zM513.608 683.284c-134.176 0-242.948 25.622-242.948 57.226s108.772 57.224 242.948 57.224c134.176 0 242.946-25.622 242.946-57.224 0-31.606-108.768-57.226-242.946-57.226z" />
<glyph unicode="&#xe61b;" d="M806.77 577.084c-29.050-159.474-75.848-375.712-94.124-473.498-36.188-45.056-119.020-67.586-201.852-67.586-82.83 0-165.662 22.53-201.85 67.586-18.432 102.7-64.892 320.11-93.268 477.952 22.188-11.096 47.824-20.528 75.848-28.324 18.584-94.040 74.62-374.344 82.24-415.054 32.166-23.034 91.732-32.16 137.030-32.16 43.978 0 104.46 8.692 137.208 32.288 6.854 35.33 63.422 313.57 83.206 412.322 27.716 7.25 53.23 16.068 75.562 26.474zM837.956 655.202c-124.792-97.63-547.176-92.998-653.73 8.364-9.418 48.044-14.352 55.556 8.422 77.316 24.078 23.008 71.238 42.566 132.544 55.796-2.842-24.168 16.044-44.722 39.698-44.722h294.5c23.696 0 42.482 20.594 39.716 44.588 61.004-13.228 107.92-32.732 131.918-55.662 24.432-23.344 17.654-28.918 6.932-85.68zM659.388 791.956c-30.926 0-56 37.092-56 68.044h-182.5c0-30.954-25.070-68.044-56-68.044h294.5z" />
<glyph unicode="&#xe61c;" d="M806.77 577.084c-29.050-159.474-75.848-375.712-94.124-473.498-72.376-90.116-331.324-90.116-403.7 0-18.432 102.7-64.892 320.11-93.268 477.952 146.016-73.022 440.58-74.596 591.092-4.454zM831.024 740.88c-23.998 22.93-70.914 42.434-131.918 55.662 2.766-23.994-16.022-44.588-39.716-44.588h-294.5c-23.652 0-42.54 20.554-39.698 44.722-61.306-13.23-108.466-32.79-132.544-55.796-22.774-21.76-17.84-29.272-8.422-77.316 106.554-101.362 528.938-105.994 653.73-8.364 10.722 56.764 17.5 62.338-6.932 85.68zM364.888 791.956c30.93 0 56 37.092 56 68.044h182.5c0-30.954 25.074-68.044 56-68.044h-294.5z" />
<glyph unicode="&#xe61d;" d="M750.842 348.060c-85.926 0-155.586-69.656-155.586-155.582 0-85.928 69.66-155.582 155.586-155.582s155.582 69.654 155.582 155.582c0 85.926-69.656 155.582-155.582 155.582zM846.458 164.208h-67.346v-67.346h-52.012v67.346h-67.346v52.010h67.346v67.344h52.012v-67.344h67.346v-52.010zM598.4 40.038c-75.182 75.182-82.344 190.308-26.366 272.97v226.068c0 16.582 13.432 30.024 30 30.024s30-13.442 30-30.024v-166.634c36.316 24.080 78.99 36.482 123.334 35.564v255.836h-601.334v-627.842h448.518c-1.398 1.326-2.784 2.67-4.152 4.038zM337.368 158.77c0-16.582-13.432-30.024-30-30.024s-30 13.442-30 30.024v380.306c0 16.582 13.432 30.024 30 30.024s30-13.442 30-30.024v-380.306zM484.702 158.77c0-16.582-13.432-30.024-30-30.024s-30 13.442-30 30.024v380.306c0 16.582 13.432 30.024 30 30.024s30-13.442 30-30.024v-380.306zM791.826 723.89h-674.25v80.066h189.876c30.93 0 56 25.092 56 56.044h182.5c0-30.954 25.072-56.044 56-56.044h189.876v-80.066z" />
<glyph unicode="&#xe61e;" d="M734 369h-279v307h90v-217h189v-90zM512 770c-177.984 0-322-144.044-322-322 0-177.984 144.046-322 322-322 177.984 0 322 144.046 322 322 0 177.986-144.046 322-322 322M512 860c227.542 0 412-184.458 412-412s-184.458-412-412-412-412 184.458-412 412 184.458 412 412 412z" />
<glyph unicode="&#xe61f;" d="M699.314 723.492l41.972 61.084 65.836-45.45-41.782-60.804c-20.354 17.18-42.46 32.356-66.026 45.17zM451.444 861.76v-95.402c19.746 3.064 39.964 4.662 60.554 4.662 20.204 0 40.054-1.536 59.446-4.486v95.226h-120zM855.388 377.63c0-189.648-153.738-343.39-343.39-343.39-189.648 0-343.386 153.742-343.386 343.39 0 189.646 153.738 343.388 343.386 343.388 189.652 0.002 343.39-153.74 343.39-343.388zM765.388 377.63c0 140.062-113.356 253.388-253.39 253.388-140.062 0-253.386-113.356-253.386-253.388 0-140.062 113.356-253.39 253.386-253.39 140.062 0 253.39 113.352 253.39 253.39zM578.526 359.546c0-34.792-28.204-63-63-63-34.792 0-63 28.208-63 63 0 22.602 11.91 42.414 29.79 53.532l23.050 173.214c0.472 3.898 3.742 6.856 7.668 6.942 3.926 0.084 7.316-2.728 7.958-6.602l26.66-172.894c18.482-10.98 30.874-31.134 30.874-54.192zM534 158.278h-40v52h40v-52zM734 398.278v-40h-52v40h52zM294 398.278v-40h52v40h-52zM683.706 236.856l-28.284-28.284-34.426 34.426 28.284 28.284 34.426-34.426zM372.578 547.982l-28.286-28.286 34.428-34.426 28.284 28.286-34.426 34.426zM655.422 547.982l28.284-28.286-34.426-34.426-28.284 28.286 34.426 34.426zM344.292 236.854l28.286-28.284 34.426 34.428-28.284 28.284-34.428-34.428z" />
<glyph unicode="&#xe620;" d="M923.058 457c0.606-28.122-1.57-55.78-6.586-83.314l-87.472 22.476c3.29 20.344 4.602 40.502 4.042 60.838h90.016zM901.434 315.6l-87.516 22.488c-7.14-19.666-16.144-38.434-26.796-56.1l73.512-52.26c16.73 26.73 30.498 55.496 40.8 85.872zM751.054 113.018c27.418 19.67 52.316 42.63 74.132 68.292l-73.704 52.394c-13.942-15.622-29.376-29.876-46.090-42.538l45.662-78.148zM99.172 448c0-227.542 184.458-412 412-412 68.012 0 132.168 16.49 188.708 45.674l-45.496 77.874c-43.138-21.46-91.76-33.548-143.212-33.548-177.836 0-322 144.164-322 322s144.164 322 322 322c87.578 0 174.976-34.972 233.024-91.704l-71.722-71.72 252.356-46.064-46.064 252.354-70.922-70.92c-74.336 73.014-184.242 118.054-296.672 118.054-227.542 0-412-184.458-412-412zM617.082 328.944v52.406h-95.754v47.796l100.492 134.87h47.558v-136.192h30.088v-46.474h-30.088v-52.406h-52.296zM617.082 427.824v62.586l-46.62-62.586h46.62zM330.298 328.944c0 35.478 10.184 63.082 45.58 89.3 41.68 30.874 73.466 42.994 73.466 71.582 0 18.89-11.364 30.624-29.654 30.624-25.492 0-31.594-26.686-31.594-52.082h-52.48c-2.21 65.774 35.124 100.174 86.338 100.174 47.486 0 81.954-31.608 81.954-75.156 0-21.734-6.75-38.97-21.242-54.244-22.962-24.192-57.344-36.396-79.9-62.108h102.436v-48.092h-174.904z" />
<glyph unicode="&#xe621;" d="M512 860c-227.542 0-412-184.458-412-412 0-227.54 184.458-412 412-412 227.54 0 412 184.46 412 412 0 227.542-184.46 412-412 412zM512 126c-177.954 0-322 144.016-322 322 0 177.958 144.016 322 322 322 177.954 0 322-144.014 322-322 0-177.954-144.016-322-322-322zM765.632 428.43c3.422-0.594 5.922-3.562 5.922-7.036v-0.186c0-3.44-2.446-6.376-5.828-7.010-74.186-13.876-249.94-42.7-269.226-42.7-27.616 0-50 22.384-50 50 0 19.664 29.58 209.35 43.236 286.162 0.548 3.084 3.23 5.338 6.362 5.338h0.016c3.418 0 6.328-2.486 6.862-5.864l37.866-239.808 224.79-38.896z" />
<glyph unicode="&#xe622;" d="M512 860c-227.542 0-412-184.458-412-412s184.458-412 412-412 412 184.458 412 412-184.458 412-412 412zM767.332 375h-312.332v331.666h84v-247.666h228.332v-84z" />
<glyph unicode="&#xe623;" d="M512 780c88.68 0 172.052-34.534 234.76-97.24 62.704-62.708 97.24-146.080 97.24-234.76s-34.536-172.052-97.24-234.76c-62.708-62.706-146.080-97.24-234.76-97.24s-172.052 34.534-234.76 97.24c-62.704 62.708-97.24 146.080-97.24 234.76s34.536 172.052 97.24 234.76c62.708 62.706 146.080 97.24 234.76 97.24M512 860c-227.542 0-412-184.458-412-412s184.458-412 412-412 412 184.458 412 412-184.458 412-412 412zM664.78 593.002l-15.132 5.344c-6.772 2.056-13.93-1.774-15.984-8.55-2.050-6.782 1.774-13.942 8.558-15.99l14.092-5.096c17.624-5.332 19.958-21.712 23.194-46.022l-18.704 6.356c-6.782 2.060-13.944-1.782-15.998-8.56-2.042-6.772 1.784-13.934 8.56-15.98l14.472-4.602c18.21-5.518 20.19-20.37 24.292-47.302l-20.096 6.028c-6.774 2.052-13.936-1.776-15.988-8.558-2.052-6.776 1.77-13.936 8.554-15.986l19.292-5.112c15.648-4.436 18.016-21.882 19.446-42.974-62.53 7.804-99.548-10.016-122.97-26.958 20.63-57.534 25.412-144.578-8.042-154.196-28.892-8.306-36.536 26.838-44.066 50.952-19.758 63.242-71.662 146.84-195.598 146.84 0 0 0 127.742 0 177.058 143.018 0 177.286 52.33 241.28 59.538 47.878 5.39 85.324-7.482 90.838-46.23z" />
<glyph unicode="&#xe624;" d="M512 860c-227.542 0-412-184.458-412-412s184.458-412 412-412 412 184.458 412 412-184.458 412-412 412zM723.932 377.994c-69.476 8.672-110.61-11.128-136.632-29.956 22.922-63.924 28.236-160.642-8.936-171.328-32.104-9.228-40.592 29.818-48.962 56.612-21.954 70.27-79.624 163.156-217.33 163.156 0 0 0 141.938 0 196.732 158.91 0 196.984 58.144 268.088 66.154 53.2 5.992 94.806-8.308 100.932-51.364l-16.814 5.938c-7.524 2.288-15.478-1.97-17.762-9.5-2.276-7.536 1.972-15.49 9.512-17.766l15.656-5.662c19.582-5.926 22.178-24.124 25.77-51.136l-20.782 7.064c-7.534 2.288-15.49-1.98-17.774-9.514-2.27-7.524 1.978-15.48 9.51-17.756l16.082-5.116c20.234-6.126 22.434-22.628 26.99-52.554l-22.328 6.696c-7.528 2.28-15.482-1.974-17.764-9.512-2.28-7.528 1.966-15.48 9.506-17.76l21.432-5.68c17.386-4.928 20.018-24.314 21.606-47.748z" />
<glyph unicode="&#xe625;" d="M512 780c88.68 0 172.052-34.534 234.76-97.24 62.704-62.708 97.24-146.080 97.24-234.76s-34.536-172.052-97.24-234.76c-62.708-62.706-146.080-97.24-234.76-97.24s-172.052 34.534-234.76 97.24c-62.704 62.708-97.24 146.080-97.24 234.76s34.536 172.052 97.24 234.76c62.708 62.706 146.080 97.24 234.76 97.24M512 860c-227.542 0-412-184.458-412-412s184.458-412 412-412 412 184.458 412 412-184.458 412-412 412zM573.942 246.77c-63.994 7.208-98.262 59.538-241.28 59.538 0 49.316 0 177.058 0 177.058 123.936 0 175.84 83.598 195.598 146.84 7.532 24.114 15.174 59.258 44.066 50.952 33.454-9.618 28.672-96.662 8.042-154.196 23.422-16.944 60.442-34.764 122.97-26.958-1.43-21.092-3.796-38.54-19.446-42.974l-19.292-5.112c-6.786-2.050-10.608-9.21-8.554-15.986 2.052-6.784 9.214-10.612 15.988-8.558l20.096 6.028c-4.104-26.934-6.082-41.786-24.292-47.302l-14.472-4.602c-6.778-2.046-10.602-9.208-8.56-15.98 2.054-6.78 9.216-10.622 15.998-8.56l18.704 6.356c-3.234-24.308-5.568-40.69-23.194-46.022l-14.092-5.096c-6.786-2.048-10.61-9.208-8.558-15.99 2.054-6.778 9.212-10.608 15.984-8.55l15.132 5.344c-5.514-38.754-42.96-51.624-90.838-46.23z" />
<glyph unicode="&#xe626;" d="M512 860c-227.542 0-412-184.458-412-412s184.458-412 412-412 412 184.458 412 412-184.458 412-412 412zM702.324 458.252l-21.432-5.68c-7.54-2.28-11.786-10.232-9.506-17.76 2.282-7.538 10.236-11.792 17.764-9.512l22.328 6.696c-4.556-29.926-6.756-46.428-26.99-52.554l-16.082-5.116c-7.532-2.276-11.78-10.232-9.51-17.756 2.284-7.534 10.24-11.8 17.774-9.514l20.782 7.064c-3.592-27.012-6.188-45.21-25.77-51.136l-15.656-5.662c-7.54-2.276-11.788-10.23-9.512-17.766 2.284-7.53 10.238-11.788 17.762-9.5l16.814 5.938c-6.124-43.054-47.732-57.356-100.932-51.364-71.104 8.010-109.178 66.154-268.088 66.154 0 54.794 0 196.732 0 196.732 137.706 0 195.376 92.886 217.33 163.156 8.372 26.792 16.86 65.84 48.962 56.612 37.172-10.686 31.858-107.404 8.936-171.328 26.024-18.826 67.156-38.626 136.632-29.956-1.586-23.432-4.218-42.818-21.606-47.748z" />
<glyph unicode="&#xe627;" d="M547.83 238.466c0-0.032 0.004-0.058 0.004-0.090 0-19.79-16.042-35.836-35.834-35.836s-35.834 16.046-35.834 35.836 16.042 35.836 35.834 35.836c4.75 0 9.274-0.946 13.422-2.624-5.376-3.586-8.922-9.702-8.922-16.648 0-11.046 8.954-20 20-20 4.208 0.002 8.108 1.308 11.33 3.526zM613.67 237.154c0-41.618-25.020-77.376-60.826-93.108-2.868 7.534-10.136 12.896-18.678 12.896-11.346 0-20.73-9.508-19.93-21.404-57.868-1.21-103.906 45.332-103.906 101.616 0 15.192 3.356 29.592 9.328 42.536 2.668-1.318 5.664-2.080 8.842-2.080 11.046 0 20 8.954 20 20 0 5.448-2.184 10.38-5.716 13.988 18.152 16.884 42.47 27.228 69.216 27.228 56.15 0 101.67-45.52 101.67-101.672zM581.094 237.154c0 38.16-30.934 69.094-69.094 69.094s-69.092-30.934-69.092-69.094c0-38.156 30.932-69.094 69.092-69.094s69.094 30.938 69.094 69.094zM826.712 263.76v-227.41h-629.424v227.402c0 65.984 5.208 104.090 83.344 122.114 88.252 20.356 175.364 38.55 133.484 115.672-124.098 228.542-35.38 358.114 97.886 358.114 130.69 0 221.646-124.782 97.884-358.114-40.658-76.652 43.294-94.872 133.486-115.672 78.132-18.020 83.34-56.126 83.34-122.106zM342.834 305.276c0 11.046-8.954 20-20 20s-20-8.954-20-20 8.954-20 20-20 20 8.952 20 20zM397.834 106.276c0 11.046-8.954 20-20 20s-20-8.954-20-20 8.954-20 20-20 20 8.952 20 20zM647.198 237.154c0 74.668-60.532 135.196-135.198 135.196s-135.198-60.528-135.198-135.196c0-74.664 60.532-135.196 135.198-135.196s135.198 60.532 135.198 135.196zM740.5 228.278c0 11.046-8.954 20-20 20s-20-8.954-20-20 8.954-20 20-20 20 8.952 20 20z" />
<glyph unicode="&#xe628;" d="M784.56 334.17c7.404-18.738 8.39-42.046 8.39-70.566v-227.602h-629.96v227.594c0 66.040 5.21 104.18 83.414 122.214 88.328 20.376 175.514 38.586 133.598 115.774-124.204 228.734-35.41 358.414 97.97 358.414 130.8 0 221.836-124.886 97.968-358.414-34.136-64.36 19.498-87.558 90.956-105.656l-100.656-56.442c-23.702 20.422-54.53 32.8-88.27 32.8-74.728 0-135.312-60.582-135.312-135.312 0-74.726 60.584-135.308 135.312-135.308 74.73 0 135.312 60.582 135.312 135.308 0 7.754-0.688 15.344-1.94 22.738l125.456 70.356c20.46 11.466 37.524 6.52 47.762 4.102zM809.542 422.376l13.652 52.972-76.36-42.8c-6.842-20.79-21.162-38.086-40.056-48.68l-207.646-116.442c-5.924 4.234-13.172 6.734-21.006 6.734-19.974 0-36.17-16.192-36.17-36.168 0-19.972 16.196-36.168 36.17-36.168 20.39 0 37.058 16.946 36.124 37.864l207.864 116.566c18.978 10.636 41.26 13.766 62.436 8.77l76.46 42.86-51.468 14.492zM477.97 167.822c-38.192 0-69.15 30.96-69.15 69.152s30.958 69.152 69.15 69.152c7.782 0 15.254-1.304 22.232-3.672l34.214 19.184c-16.152 10.792-35.562 17.094-56.448 17.094-56.198 0-101.756-45.558-101.756-101.758 0-56.196 45.558-101.758 101.756-101.758 57.886 0 104.42 48.32 101.63 106.7l-33.914-19.020c-6.502-31.44-34.344-55.074-67.714-55.074z" />
<glyph unicode="&#xe629;" d="M512 338.826c-56.15 0-101.67-45.52-101.67-101.672 0-56.148 45.52-101.672 101.67-101.672s101.67 45.524 101.67 101.672c0 56.152-45.52 101.672-101.67 101.672zM512 168.060c-38.16 0-69.092 30.938-69.092 69.094 0 38.16 30.932 69.094 69.092 69.094s69.094-30.934 69.094-69.094c0-38.156-30.934-69.094-69.094-69.094zM547.834 238.376c0-19.79-16.042-35.836-35.834-35.836s-35.834 16.046-35.834 35.836 16.042 35.836 35.834 35.836 35.834-16.046 35.834-35.836zM743.374 385.866c-90.192 20.8-174.144 39.020-133.486 115.672 123.762 233.332 32.804 358.114-97.884 358.114-133.268 0-221.984-129.57-97.886-358.114 41.878-77.122-45.232-95.316-133.484-115.672-78.136-18.024-83.344-56.128-83.344-122.114v-227.402h629.426v227.41c-0.004 65.98-5.212 104.086-83.342 122.106zM512 101.958c-74.666 0-135.198 60.532-135.198 135.196 0 74.668 60.532 135.196 135.198 135.196s135.198-60.528 135.198-135.196c0-74.664-60.532-135.196-135.198-135.196z" />
<glyph unicode="&#xe62a;" d="M560.632 426.594l317.708-157.232-111.886-43.276 107.958-138.662-64.182-51.424-108.922 141.456-69.492-97.94-71.184 347.078zM475.050 603.364c-38.852 0-70.356-31.496-70.356-70.354 0-38.854 31.504-70.356 70.356-70.356 38.856 0 70.356 31.502 70.356 70.356 0 38.858-31.5 70.354-70.356 70.354zM541.042 273.414c-21.308-5.426-43.43-8.232-65.992-8.232-70.898 0-137.55 27.608-187.688 77.738-50.132 50.136-77.742 116.792-77.742 187.692 0 70.894 27.61 137.55 77.746 187.686 50.132 50.132 116.79 77.744 187.684 77.744 70.898 0 137.55-27.612 187.688-77.744 50.132-50.134 77.742-116.792 77.742-187.686 0-43.362-10.344-85.126-29.836-122.506l57.286-28.352c23.328 45.202 36.512 96.488 36.512 150.858 0 181.91-147.478 329.388-329.392 329.388-181.91 0-329.39-147.478-329.39-329.388 0-181.924 147.48-329.388 329.39-329.388 27.18 0 53.582 3.316 78.844 9.52l-12.852 62.67zM475.050 730.22c-110.238 0-199.61-89.374-199.61-199.61 0-110.244 89.372-199.61 199.61-199.61 18.258 0 35.934 2.464 52.734 7.054l-12.898 62.882c-12.602-3.878-25.976-5.978-39.836-5.978-74.796 0-135.648 60.852-135.648 135.65s60.852 135.65 135.648 135.65 135.652-60.852 135.652-135.65c0-23.476-6-45.578-16.542-64.858l57.402-28.406c14.742 27.836 23.102 59.57 23.102 93.264 0 110.24-89.374 199.612-199.614 199.612z" />
<glyph unicode="&#xe62b;" d="M924 678.242l-148.466-83.22c-41.116 9.706-84.376 3.628-121.228-17.028l-155.376-87.092c1.812-40.62-30.548-73.522-70.144-73.522-38.784 0-70.226 31.446-70.226 70.226 0 38.788 31.444 70.226 70.226 70.226 15.214 0 29.288-4.856 40.788-13.076l154.954 86.856c36.694 20.57 64.498 54.154 77.786 94.524l148.26 83.104-26.51-102.854 99.936-28.144zM751.418 548.728c-22.224 2.756-43.894-0.83-63.19-9.458 17.756-86.124-7.362-176.666-72.1-241.402-50.042-50.042-116.574-77.6-187.344-77.6-70.768 0-137.3 27.558-187.344 77.6-50.042 50.042-77.6 116.576-77.6 187.346 0 70.766 27.558 137.298 77.602 187.342s116.576 77.604 187.342 77.604c67.102 0 130.386-24.794 179.428-70.028 18.054 12.15 32.332 28.938 41.432 48.638-58.364 52.958-135.844 85.23-220.858 85.23-181.578 0-328.786-147.208-328.786-328.788 0-97.376 42.342-184.844 109.602-245.044l-46.032-142.622c-3.772-11.678 10.642-20.71 19.512-12.188l106.12 102.108c88.998-41.796 191.962-40.994 279.078-0.094l106.022-102.014c8.87-8.524 23.284 0.508 19.512 12.188l-45.994 142.516c82.62 74.002 127.1 188.61 103.598 308.666zM428.786 620.616c19.192 0 37.45-4.038 54.006-11.268l64.412 36.104c-33.108 24.508-74.068 39.008-118.418 39.008-110.036 0-199.242-89.21-199.242-199.246 0-110.044 89.208-199.242 199.242-199.242 117.804 0 210.18 101.772 198.222 219.544l-63.72-35.718c-7.68-67.422-65.054-119.984-134.502-119.984-74.66 0-135.4 60.742-135.4 135.4-0.002 74.66 60.738 135.402 135.4 135.402z" />
<glyph unicode="&#xe62c;" d="M512 714.238c-123.838 0-224.234-100.398-224.234-224.234 0-123.846 100.396-224.234 224.234-224.234 123.836 0 224.232 100.386 224.232 224.234 0 123.834-100.396 224.234-224.232 224.234zM512 337.62c-84.026 0-152.384 68.358-152.384 152.384 0 84.024 68.36 152.386 152.384 152.386s152.384-68.364 152.384-152.386c0-84.028-68.358-152.384-152.384-152.384zM591.038 492.698c0-43.646-35.39-79.036-79.038-79.036s-79.038 35.39-79.038 79.036c0 43.648 35.388 79.034 79.038 79.034 43.646 0 79.038-35.386 79.038-79.034zM758.604 214.154c75.736 67.756 123.422 166.222 123.422 275.848 0 204.352-165.676 370.024-370.026 370.024-204.354 0-370.026-165.672-370.026-370.024 0-109.626 47.686-208.092 123.424-275.848l-51.86-160.678c-4.244-13.148 11.982-23.318 21.964-13.72l119.59 115.068c99.080-46.46 214.616-46.514 313.812 0l119.59-115.068c9.982-9.598 26.208 0.572 21.964 13.72l-51.854 160.678zM301.158 279.158c-56.314 56.316-87.334 131.198-87.334 210.844 0 79.64 31.020 154.52 87.338 210.84s131.196 87.336 210.838 87.336c79.64 0 154.52-31.016 210.838-87.336 56.322-56.32 87.34-131.2 87.34-210.84 0-79.648-31.018-154.528-87.336-210.844-56.32-56.314-131.198-87.334-210.842-87.334s-154.522 31.020-210.842 87.334z" />
<glyph unicode="&#xe62d;" d="M116.568 564c50.1 171.058 208.156 295.998 395.416 295.998 251.11 0 444.416-222.948 407.54-472.664h-33.54c-42.594 0-48.004 5-70.852 68.38-18.14 50.312-42.444 112.286-98.578 112.286-56.136 0-79.18-62.484-98.578-112.288-16.090-41.314-23.524-65.912-37.496-65.912-13.55 0-20.98 24-37.5 65.912-19.59 49.714-42.444 112.288-98.578 112.288s-79.936-62.14-98.58-112.286c-16.702-44.916-23.032-65.914-37.504-65.914-13.878 0-19.382 21.6-37.506 65.914-20.212 49.418-43.162 108.286-104.58 108.286h-49.664zM852.632 320c-56.136 0-78.77 58.676-98.578 108.288-20.328 50.912-24.456 67.712-37.5 67.712-13.106 0-18.426-20.798-37.5-67.712-20.108-49.468-42.44-112.288-98.574-112.288-56.136 0-79.332 62.414-98.58 112.286-17.912 46.414-23.142 65.914-37.5 65.914-13.716 0-18.67-18.6-37.506-65.914-19.754-49.636-42.442-112.286-98.576-112.286-56.136 0-80.75 61.868-98.582 112.286-22.422 63.382-29.176 68.714-71.086 68.714h-35.754c-29.268-246.872 163.546-460.998 409.088-460.998 182.848 0 337.852 119.126 391.696 283.998h-51.048z" />
<glyph unicode="&#xe62e;" d="M352.914 476.142c0 0 0.066-232.084 0-290.894-0.162-142.78-210.686-174.666-248.042-68.804-28.256 80.054 71.532 165.040 167.212 146.148v368.488l253.152 52.666c-2.74-58.76 16.45-114.944 53.972-159.198l-226.294-48.406zM677.758 456.27v-142.9c-95.686 18.886-194.964-66.106-166.714-146.154 37.36-105.868 247.88-73.978 248.042 68.802 0.024 20.496 0.030 109.84 0.030 207.202-28.044-0.542-55.442 3.876-81.358 13.050zM612.368 720.468c25.256 0 34.696-24.208 43.006-44.532 7.454-18.224 9.716-27.104 15.422-27.104 5.954 0 8.556 8.632 15.424 27.104 7.668 20.622 17.454 46.176 40.54 46.176 23.084 0 32.482-25.734 40.538-46.176 6.794-17.234 9.848-27.104 15.422-27.104 5.746 0 8.802 10.118 15.42 27.104 7.976 20.48 17.454 46.176 40.538 46.176s33.076-25.488 40.538-46.176c9.396-26.062 11.622-28.118 29.136-28.118h13.792c15.166 102.69-64.326 194.372-167.592 194.372-77.002 0-142-51.378-162.604-121.722h20.42zM915.624 620.126c-22.14-67.798-85.88-116.784-161.076-116.784-100.97 0-180.262 88.056-168.226 189.576h14.706c17.234 0 20.012-2.192 29.23-28.26 7.334-20.734 17.456-46.174 40.54-46.174 23.086 0 32.414 25.764 40.54 46.174 7.744 19.458 9.782 27.108 15.424 27.108 5.904 0 8.054-8.022 15.422-27.108 7.914-20.508 17.454-46.174 40.538-46.174s32.266 25.836 40.536 46.178c7.846 19.29 10.034 27.844 15.422 27.844 5.364 0 7.060-6.91 15.422-27.844 8.142-20.406 17.452-44.536 40.538-44.536h20.984z" />
<glyph unicode="&#xe62f;" d="M646.21 770l188.624-188.624v-266.754l-188.624-188.622h-266.752l-188.624 188.624v266.752l188.624 188.624h266.752zM924.834 618.656v-341.312l-241.344-241.344h-341.312l-241.344 241.344v341.312l241.344 241.344h341.312l241.344-241.344zM864.834 593.804l-206.198 206.196h-291.604l-206.198-206.196v-291.608l206.198-206.196h291.606l206.198 206.198v291.606z" />
<glyph unicode="&#xe630;" d="M765.346 505.79c8.774-10.68 9.414-36.72-1.008-46.942-9.176-9.008-18.972-7.488-38.446-7.488v62.496c18.41-0.002 31.642 1.44 39.454-8.066zM604.786 513.712c-7.524 5.588-22.078 5.628-29.664 0-3.744-2.788-6.624-7.252-8.638-13.392-6.968-21.252-6.898-96.95 0-117.65 2.016-6.046 4.894-10.464 8.638-13.246 7.51-5.586 22.094-5.636 29.664 0 3.744 2.782 6.624 7.2 8.638 13.246 6.946 20.82 6.938 96.514 0 117.65-2.016 6.14-4.894 10.604-8.638 13.392zM924.834 618.656v-341.312l-241.344-241.344h-341.312l-241.344 241.344v341.312l241.344 241.344h341.312l241.344-241.344zM365.314 397.792c0 25.176-8.052 40.764-39.166 54.432l-31.968 13.824c-14.236 5.876-21.31 12.23-21.31 27.934 0 16.404 8.544 23.904 23.616 23.904 8.064 0 13.822-2.64 17.28-7.92 3.456-5.282 5.186-12.814 5.186-22.608h39.742v5.762c0 9.792-1.584 18.188-4.75 25.2-10.474 23.156-33.586 30.096-58.896 30.096-19.78 0-35.33-4.996-46.656-14.976-20.648-18.202-18.724-52.934-13.824-67.822 4.458-13.606 14.25-23.016 26.786-29.81 23.536-12.792 51.894-14.496 58.894-33.262 2.634-7.114 3.932-23.238-5.76-31.106-10.974-8.91-30.606-8.29-39.024 2.446-4.748 6.032-5.472 15.364-5.472 23.042v6.046h-41.472v-8.352c0-19.008 5.042-33.602 15.122-43.778 10.078-10.176 26.83-15.262 50.256-15.262 22.464 0 39.98 4.938 52.56 14.832 12.568 9.888 18.856 25.678 18.856 47.378zM506.436 544.382h-131.328v-33.984h44.928v-171.646h41.472v171.646h44.928v33.984zM648.274 518.462c-4.896 9.406-11.954 16.75-21.168 22.032-18.592 10.652-55.712 10.652-74.304 0-9.214-5.282-16.272-12.624-21.168-22.032-15.896-30.552-15.968-123.112 0-153.792 4.896-9.41 11.954-16.61 21.168-21.598 18.622-10.086 55.73-10.058 74.304 0 9.214 4.988 16.272 12.188 21.168 21.598 15.968 30.676 15.898 123.24 0 153.792zM801.058 525.086c-10.624 13.852-26.466 19.294-44.062 19.294h-72.576v-205.63h41.472v82.078c23.336 0 34.39-0.766 48.958 3.746 48.22 14.91 44.608 76.516 26.208 100.512z" />
<glyph unicode="&#xe631;" d="M682.546 860h-341.312l-241.344-241.344v-341.312l241.344-241.344h341.312l241.344 241.344v341.312l-241.344 241.344zM751.508 446.126c-5.178-13.482-71.806-157.912-88.25-194.806-17.238-38.684-39.026-77.3-101.188-77.3 0 0-77.444 0-121.842 0-65.418 0-99.958 38.814-99.958 106.704 0 75.102 0.116 296.242 0.116 296.242 0 39.286 54.124 37.286 54.124 1.818v-129.888c0-10.678 19.588-10.628 19.588 0l0.21 208.712c0 40.392 61.032 39.306 61.032 0v-197.040c0-10.874 18.19-10.418 18.19 0.224v231.258c0 39.32 59.91 40.488 59.91 0l0.028-233.908c0-10.486 18.952-10.712 18.952 0 0 4.896 0 196.46 0 196.46 0 37.188 55.83 38.33 55.83 0v-243.192c0-13.626 15.42-15.804 20.52-5.392 4.84 9.888 35.978 72.774 36.216 73.248 20.14 42.212 87.48 16.566 66.522-33.14z" />
<glyph unicode="&#xe632;" d="M512 780c183.482 0 332-148.49 332-332 0-183.486-148.49-332-332-332-183.482 0-332 148.49-332 332 0 183.486 148.49 332 332 332zM512 860c-227.542 0-412-184.458-412-412s184.458-412 412-412 412 184.458 412 412-184.458 412-412 412zM443.634 539.604l-164.34-22.692 119.616-114.956-29.204-163.31 146.294 78.24 146.292-78.24-29.204 163.31 119.616 114.956-164.34 22.692-72.364 149.284-72.366-149.284z" />
<glyph unicode="&#xe633;" d="M512 860c-227.542 0-412-184.458-412-412s184.458-412 412-412 412 184.458 412 412-184.458 412-412 412zM692.518 201.796l-174.518 93.334-174.518-93.334 34.838 194.818-142.696 137.132 196.048 27.070 86.328 178.090 86.326-178.088 196.048-27.070-142.696-137.132 34.84-194.82z" />
<glyph unicode="&#xe634;" d="M615.566 146.226l-325.22-0.152-0.028 69.456 325.206 0.168 0.042-69.472zM835.324 539.586l-55.634 320.414-68.442-11.876 55.626-320.414 68.45 11.876zM623.386 304.754l-323.832 29.838-6.376-69.178 323.838-29.81 6.37 69.15zM644.75 395.392l-314.050 84.42-18.044-67.070 314.072-84.43 18.022 67.080zM685.75 474.84l-280.116 165.214-35.304-59.808 280.13-165.224 35.29 59.818zM754.436 523.488l-183.23 268.696-57.392-39.13 183.238-268.684 57.384 39.118zM670.796 374.708v-283.948h-426.562v283.948h-55.558v-338.446h537.398v338.446h-55.278z" />
<glyph unicode="&#xe635;" d="M512.834 780c88.68 0 172.052-34.534 234.76-97.24 62.708-62.708 97.24-146.080 97.24-234.76 0-88.68-34.534-172.052-97.24-234.76-62.708-62.706-146.080-97.24-234.76-97.24s-172.052 34.536-234.76 97.24c-62.708 62.708-97.24 146.080-97.24 234.76 0 88.68 34.534 172.052 97.24 234.76 62.708 62.706 146.080 97.24 234.76 97.24M512.834 860c-227.542 0-412-184.458-412-412s184.458-412 412-412 412 184.458 412 412-184.458 412-412 412v0zM562.46 307.8l-168.402-0.078-0.014 35.964 168.394 0.088 0.022-35.974zM676.252 511.488l-28.808 165.914-35.438-6.152 28.804-165.912 35.442 6.15zM566.508 389.89l-167.682 15.45-3.3-35.82 167.688-15.434 3.294 35.804zM577.572 436.824l-162.62 43.712-9.342-34.728 162.628-43.718 9.334 34.734zM598.802 477.96l-145.044 85.55-18.282-30.968 145.052-85.556 18.274 30.974zM634.368 503.152l-94.876 139.132-29.718-20.262 94.882-139.126 29.712 20.256zM591.060 426.114v-147.032h-220.876v147.032h-28.77v-175.248h278.268v175.248h-28.622z" />
<glyph unicode="&#xe636;" d="M512.834 860c-227.542 0-412-184.458-412-412s184.458-412 412-412 412 184.458 412 412-184.458 412-412 412zM452.418 580.366l169.644-100.058-21.372-36.228-169.654 100.066 21.382 36.22zM407.034 483.318l190.198-51.126-10.914-40.624-190.208 51.132 10.924 40.618zM388.172 395.37l196.12-18.070-3.854-41.876-196.126 18.050 3.86 41.896zM579.532 323.366l0.028-42.076-196.962-0.090-0.018 42.062 196.952 0.104zM646.482 214.696h-325.458v204.968h33.646v-171.964h258.336v171.964h33.476v-204.968zM628.906 486.080l-110.974 162.72 34.76 23.698 110.966-162.728-34.752-23.69zM671.194 512.326l-33.69 194.050 41.45 7.194 33.694-194.050-41.454-7.194z" />
<glyph unicode="&#xe637;" d="M823.89 860h-624c-55.228 0-100-44.772-100-100v-624c0-55.228 44.772-100 100-100h624c55.228 0 100 44.772 100 100v624c0 55.228-44.77 100-100 100zM442.106 586.876l199.582-117.716-25.142-42.622-199.592 117.724 25.152 42.614zM388.712 472.704l223.762-60.15-12.842-47.792-223.776 60.156 12.856 47.786zM366.524 369.234l230.728-21.26-4.536-49.268-230.736 21.24 4.544 49.288zM591.65 284.524l0.034-49.5-231.72-0.106-0.022 49.484 231.708 0.122zM670.418 156.676h-382.894v241.14h39.584v-202.312h303.926v202.312h39.384v-241.14zM649.74 475.952l-130.558 191.436 40.892 27.88 130.55-191.446-40.884-27.87zM699.488 506.832l-39.632 228.294 48.764 8.462 39.638-228.294-48.77-8.462z" />
<glyph unicode="&#xe638;" d="M100.946 860v-824h824v824h-824zM447.16 586.876l199.582-117.716-25.142-42.62-199.592 117.724 25.152 42.612zM393.768 472.704l223.762-60.15-12.842-47.792-223.776 60.156 12.856 47.786zM371.578 369.234l230.728-21.26-4.536-49.268-230.736 21.238 4.544 49.29zM596.706 284.524l0.034-49.5-231.72-0.106-0.022 49.484 231.708 0.122zM675.472 156.676h-382.894v241.14h39.584v-202.312h303.926v202.312h39.384v-241.14zM654.794 475.952l-130.558 191.436 40.892 27.88 130.55-191.446-40.884-27.87zM704.542 506.832l-39.632 228.294 48.764 8.462 39.638-228.294-48.77-8.462z" />
<glyph unicode="&#xe639;" d="M774 860c82.844 0 150-67.158 150-150v-524c0-82.842-67.156-150-150-150h-524c-82.844 0-150 67.158-150 150v524c0 82.842 67.156 150 150 150h524z" />
<glyph unicode="&#xe63a;" d="M348.118 251.252c-0.062 0.016-0.124 0.028-0.186 0.042-51.784-31.93-165.966-64.214-246.282-78.824 29.968 59.45 63.232 141.054 61.528 197.954-40.372 48.554-63.178 111.128-63.178 174.86 0 179.68 174.766 311.054 370.418 311.054 194.44 0 370.422-130.386 370.422-311.054 0-2.566-0.054-5.128-0.132-7.688-22.57 12.176-47.012 22.074-73.244 29.36-13.708 121.722-141.684 217.43-297.044 217.43-164.474 0-298.282-107.262-298.282-239.102 0-69.376 30.018-113.058 72.384-156.136-8.612-63.96-29.292-119.562-29.292-119.562s61.084 16.128 130.506 56.55c-2.946-25.368-2.124-50.338 2.382-74.884zM922.864 39.662c-55.268 10.058-133.844 32.274-169.478 54.246-196.204-48.058-339.2 72.848-339.2 202.308 0 124.332 121.104 214.058 254.906 214.058 134.644 0 254.908-90.406 254.908-214.058 0-43.856-15.7-86.914-43.476-120.328-1.176-39.156 21.718-95.312 42.34-136.226zM605.048 293.604c0 19.296-15.682 34.938-35.030 34.938-19.346 0-35.030-15.64-35.030-34.938s15.684-34.942 35.030-34.942c19.35 0 35.030 15.644 35.030 34.942zM709.5 293.604c0 19.296-15.682 34.938-35.030 34.938-19.346 0-35.030-15.64-35.030-34.938s15.684-34.942 35.030-34.942c19.348 0 35.030 15.644 35.030 34.942zM812.678 293.604c0 19.296-15.684 34.938-35.030 34.938-19.348 0-35.030-15.64-35.030-34.938s15.682-34.942 35.030-34.942c19.346 0 35.030 15.644 35.030 34.942z" />
<glyph unicode="&#xe63b;" d="M881.408 176.458c27.216 32.818 42.592 75.11 42.592 118.184 0 70.52-39.728 130.020-98.87 167.532 8.372 26.106 12.79 53.188 12.79 80.54 0 180.414-175.29 310.624-368.958 310.624-194.888 0-368.962-131.196-368.962-310.626 0-63.644 22.716-126.132 62.93-174.618 1.698-56.82-31.438-138.312-61.286-197.684 79.996 14.59 193.732 46.832 245.308 78.714 30.268-7.434 59.652-12.054 88.014-14.2 35.754-101.176 160.422-178.64 321.888-138.988 34.91-21.578 111.886-43.398 166.032-53.278-20.202 40.188-42.628 95.344-41.478 133.8zM344.862 323.92c-69.19-40.406-130.084-56.528-130.084-56.528s20.598 55.524 29.176 119.398c-42.202 43.016-72.1 86.64-72.1 155.922 0 131.66 133.282 238.774 297.108 238.774 163.824 0 297.108-107.114 297.108-238.774-0.002-136.28-156.634-288.952-421.208-218.792zM837.712 117.002c0 0-39.154 10.364-83.64 36.344-131.41-34.844-221.318 15.754-255.492 80.938 140.84 8.152 249.532 80.024 302.93 174.156 39.128-28.132 63.802-69 63.802-114.414 0-44.546-19.224-72.594-46.358-100.254 5.514-41.070 18.758-76.77 18.758-76.77z" />
<glyph unicode="&#xe63c;" d="M101.968 173.792c29.918 59.508 63.128 141.19 61.426 198.14-40.304 48.602-63.074 111.232-63.074 175.024 0 179.852 174.478 311.35 369.818 311.35 194.124 0 369.818-130.51 369.818-311.35 0-188.306-207.46-364.168-492.11-294.264-51.696-31.958-165.692-64.272-245.878-78.9zM880.868 172.182c54.342 65.526 59.888 163.522-0.362 237.708-62.008-139.684-214.932-244.082-411.218-242.812 56.958-66.866 160.55-106.734 286.384-75.83 35.088-21.694 112.462-43.624 166.888-53.554-20.306 40.39-42.848 95.832-41.692 134.488z" />
<glyph unicode="&#xe63d;" d="M101.836 66.706c33.33 66.294 70.33 157.294 68.434 220.742-44.902 54.144-70.27 123.92-70.27 194.986 0 200.366 194.38 346.862 412 346.862 216.264 0 412-145.396 412-346.862 0-209.788-231.124-405.706-548.238-327.828-57.596-35.606-184.596-71.606-273.926-87.9zM512 749.062c-182.938 0-331.768-119.61-331.768-266.628 0-77.36 33.388-126.074 80.512-174.11-9.578-71.324-32.578-133.324-32.578-133.324s68 18 145.258 63.12c295.61-78.388 470.342 92.188 470.342 244.314 0 147.020-148.83 266.628-331.766 266.628z" />
<glyph unicode="&#xe63e;" d="M512.834 780c88.68 0 172.052-34.534 234.76-97.24 62.708-62.708 97.24-146.080 97.24-234.76 0-88.68-34.534-172.052-97.24-234.76-62.708-62.706-146.080-97.24-234.76-97.24s-172.052 34.536-234.76 97.24c-62.708 62.708-97.24 146.080-97.24 234.76 0 88.68 34.534 172.052 97.24 234.76 62.708 62.706 146.080 97.24 234.76 97.24M512.834 860c-227.542 0-412-184.458-412-412s184.458-412 412-412 412 184.458 412 412-184.458 412-412 412v0zM767.124 423.152c0-33.528-27.178-60.706-60.704-60.706h-168.85v208.614c6.454 2.354 13.192 4.106 20.152 5.194 5.446 0.85 11.024 1.302 16.708 1.302 56.518 0 102.85-43.592 107.216-98.988 7.566 3.388 15.946 5.288 24.772 5.288 33.528-0.002 60.706-27.18 60.706-60.704zM474.434 529.822v-167.374h20.15v179.606c-4.484-4.966-8.516-10.354-12.022-16.094-2.628 1.422-5.344 2.708-8.128 3.862zM505.668 362.448h20.15v203.504c-7.224-3.668-13.98-8.126-20.15-13.266v-190.238zM377.708 508.854v-146.408h20.15v162.402c-7.492-4.318-14.278-9.72-20.15-15.994zM317.258 478.48v-115.532c2.474-0.32 4.992-0.502 7.554-0.502h10.582v115.574c-3.434 0.63-6.968 0.962-10.582 0.962-2.562 0.002-5.080-0.18-7.554-0.502zM290.556 373.592c4.58-3.338 9.662-6.016 15.114-7.91v110.068c-5.452-1.896-10.534-4.576-15.114-7.91v-94.248zM346.472 474.802v-112.354h20.152v131.736c-4.534-7.542-7.97-15.82-10.058-24.624-3.164 2.062-6.542 3.816-10.094 5.242zM409.95 362.448h20.15v173.262c-7.014-0.894-13.76-2.632-20.15-5.094v-168.168zM442.192 362.448h20.15v171.368c-6.46 1.616-13.208 2.504-20.15 2.584v-173.952zM280.648 382.726v75.976c-8.784-10.202-14.104-23.468-14.104-37.988 0-14.516 5.322-27.784 14.104-37.988z" />
<glyph unicode="&#xe63f;" d="M512.834 860c-227.542 0-412-184.458-412-412s184.458-412 412-412 412 184.458 412 412-184.458 412-412 412zM250.406 373.030c-9.76 11.338-15.672 26.078-15.672 42.208 0 16.132 5.912 30.874 15.672 42.208v-84.416zM278.208 354.090c-6.056 2.106-11.704 5.082-16.792 8.79v104.72c5.090 3.706 10.736 6.682 16.792 8.79v-122.3zM311.234 350.496h-11.758c-2.848 0-5.644 0.202-8.394 0.558v128.368c2.75 0.358 5.546 0.56 8.394 0.56 4.016 0 7.944-0.37 11.758-1.070v-128.416zM345.936 350.496h-22.39v124.838c3.946-1.584 7.7-3.534 11.214-5.824 2.318 9.782 6.138 18.978 11.176 27.358v-146.372zM380.64 350.496h-22.388v162.674c6.524 6.97 14.062 12.974 22.388 17.772v-180.446zM416.462 350.496h-22.388v186.854c7.1 2.734 14.596 4.666 22.388 5.66v-192.514zM452.288 350.496h-22.388v193.28c7.712-0.088 15.21-1.076 22.388-2.87v-190.41zM488.112 350.496h-22.388v185.972c3.094-1.282 6.112-2.708 9.034-4.292 3.894 6.378 8.374 12.364 13.356 17.882v-199.562zM522.816 350.496h-22.388v211.378c6.856 5.71 14.362 10.666 22.388 14.74v-226.118zM723.484 350.496h-187.61v231.792c7.17 2.616 14.656 4.562 22.39 5.77 6.050 0.944 12.248 1.446 18.566 1.446 62.796 0 114.278-48.436 119.128-109.988 8.408 3.764 17.716 5.876 27.524 5.876 37.252 0 67.45-30.198 67.45-67.448 0.002-37.25-30.196-67.448-67.448-67.448z" />
<glyph unicode="&#xe640;" d="M823.89 860h-624c-55.228 0-100-44.772-100-100v-624c0-55.228 44.772-100 100-100h624c55.228 0 100 44.772 100 100v624c0 55.228-44.77 100-100 100zM220.304 362.254c-10.844 12.598-17.414 28.976-17.414 46.9s6.57 34.302 17.414 46.896v-93.796zM251.196 341.208c-6.73 2.342-13.004 5.648-18.66 9.766v116.358c5.656 4.118 11.93 7.424 18.66 9.766v-135.89zM287.89 337.216h-13.062c-3.164 0-6.274 0.224-9.328 0.622v142.63c3.054 0.396 6.164 0.622 9.328 0.622 4.46 0 8.824-0.41 13.062-1.19v-142.684zM326.45 337.216h-24.878v138.71c4.382-1.758 8.554-3.926 12.46-6.47 2.576 10.868 6.82 21.086 12.418 30.398v-162.638zM365.010 337.216h-24.876v180.75c7.248 7.746 15.624 14.416 24.876 19.746v-200.496zM404.812 337.216h-24.876v207.616c7.888 3.040 16.216 5.186 24.876 6.29v-213.906zM444.618 337.216h-24.878v214.756c8.57-0.098 16.9-1.196 24.876-3.19v-211.566zM484.422 337.216h-24.876v206.636c3.438-1.424 6.792-3.010 10.038-4.768 4.326 7.088 9.302 13.736 14.84 19.87v-221.738zM522.982 337.216h-24.876v234.866c7.618 6.344 15.958 11.85 24.876 16.378v-251.244zM745.948 337.216h-208.456v257.548c7.966 2.906 16.286 5.070 24.878 6.412 6.722 1.048 13.61 1.608 20.628 1.608 69.774 0 126.974-53.818 132.366-122.208 9.342 4.182 19.686 6.528 30.582 6.528 41.39 0 74.944-33.552 74.944-74.944s-33.552-74.944-74.942-74.944z" />
<glyph unicode="&#xe641;" d="M100.946 860v-824h824v824h-824zM221.36 362.254c-10.844 12.598-17.414 28.976-17.414 46.9s6.57 34.302 17.414 46.896v-93.796zM252.25 341.208c-6.73 2.342-13.004 5.648-18.66 9.766v116.358c5.656 4.118 11.93 7.424 18.66 9.766v-135.89zM288.946 337.216h-13.062c-3.164 0-6.274 0.224-9.328 0.622v142.63c3.054 0.396 6.164 0.622 9.328 0.622 4.46 0 8.824-0.41 13.062-1.19v-142.684zM327.504 337.216h-24.878v138.71c4.382-1.758 8.554-3.926 12.46-6.47 2.576 10.868 6.82 21.086 12.418 30.398v-162.638zM366.064 337.216h-24.876v180.75c7.248 7.746 15.624 14.416 24.876 19.746v-200.496zM405.868 337.216h-24.876v207.616c7.888 3.040 16.216 5.186 24.876 6.29v-213.906zM445.672 337.216h-24.876v214.756c8.57-0.098 16.9-1.196 24.876-3.19v-211.566zM485.476 337.216h-24.876v206.636c3.438-1.424 6.792-3.010 10.038-4.768 4.326 7.088 9.302 13.736 14.84 19.87v-221.738zM524.038 337.216h-24.878v234.866c7.618 6.344 15.958 11.85 24.876 16.378v-251.244zM747.002 337.216h-208.456v257.548c7.966 2.906 16.286 5.070 24.878 6.412 6.722 1.048 13.61 1.608 20.628 1.608 69.774 0 126.974-53.818 132.366-122.208 9.342 4.182 19.686 6.528 30.582 6.528 41.39 0 74.944-33.552 74.944-74.944s-33.552-74.944-74.942-74.944z" />
<glyph unicode="&#xe642;" d="M512 780c183.482 0 332-148.486 332-332 0-183.484-148.486-332-332-332-183.48 0-332 148.486-332 332 0 183.482 148.488 332 332 332M512 860c-227.542 0-412-184.458-412-412s184.458-412 412-412c227.542 0 412 184.458 412 412 0 227.542-184.458 412-412 412zM399.332 597c-34.24 0-62-27.76-62-62s27.76-62 62-62c34.242 0 62 27.76 62 62s-27.758 62-62 62zM712.668 391.332c-54.002-42.666-113.334-68.942-196.668-68.942s-142.666 26.276-196.668 68.942l-17.582-17.582c40.25-61.418 114.25-127.36 214.25-127.36s174 65.942 214.25 127.36l-17.582 17.582zM733.678 515.73c-6.746-4.674-29.136-19.574-29.136-19.574s-19.43 36.648-67.432 36.648c-46.664 0-67.432-36.648-67.432-36.648s-22.39 14.9-29.136 19.574c10.9 28.888 46.566 77.352 96.568 77.352s85.668-48.462 96.568-77.352z" />
<glyph unicode="&#xe643;" d="M512 860c-227.542 0-412-184.458-412-412s184.458-412 412-412c227.542 0 412 184.458 412 412 0 227.542-184.458 412-412 412zM512 116c-183.48 0-332 148.486-332 332 0 183.482 148.488 332 332 332 183.482 0 332-148.486 332-332 0-183.484-148.486-332-332-332zM399.332 597c-34.24 0-62-27.76-62-62s27.76-62 62-62c34.242 0 62 27.76 62 62s-27.758 62-62 62zM729.038 383.846c-14.7-50.798-99.46-148.306-213.042-148.306s-198.342 97.508-213.042 148.306h426.084zM733.678 515.73c-6.746-4.674-29.136-19.574-29.136-19.574s-19.43 36.648-67.432 36.648c-46.664 0-67.432-36.648-67.432-36.648s-22.39 14.9-29.136 19.574c10.9 28.888 46.566 77.352 96.568 77.352s85.668-48.462 96.568-77.352z" />
<glyph unicode="&#xe644;" d="M399.332 596.994c-34.252 0-61.984-27.758-61.984-61.984 0-34.252 27.732-62.010 61.984-62.010s61.986 27.758 61.986 62.010c0 34.226-27.734 61.984-61.986 61.984zM632.65 596.994c-34.226 0-61.984-27.758-61.984-61.984 0-34.252 27.758-62.010 61.984-62.010 34.252 0 62.010 27.758 62.010 62.010 0 34.226-27.758 61.984-62.010 61.984zM555.358 126.304c-55.71 65.356-83.616 104.002-146.87 143.698-39.184 24.584-70.042 58.422-91.404 91.014l17.576 17.576c0.026 0 0.050-0.024 0.050-0.024 85.226-67.332 157.198-67.624 317.79-67.624 0 0 48.166-51.512 89.182-99.852 94.112-110.884-71.14-219.89-186.324-84.788zM548.094 37.612c-11.902-1.042-23.934-1.612-36.094-1.612-227.534 0-412 184.466-412 412s184.466 412 412 412 412-184.466 412-412c0-97.924-34.226-187.87-91.292-258.576-11.494 37.696-33.744 62.434-44.212 74.644 35.048 52.638 55.476 115.868 55.476 183.932 0 183.516-148.506 331.972-331.972 331.972-183.49 0-331.998-148.482-331.998-331.972 0-169.344 126.48-308.84 290.2-329.352 31.43-37.164 46.84-58.006 77.892-81.036z" />
<glyph unicode="&#xe645;" d="M512 780c183.482 0 332-148.486 332-332 0-183.484-148.486-332-332-332-183.48 0-332 148.486-332 332 0 183.482 148.488 332 332 332M512 860c-227.542 0-412-184.458-412-412s184.458-412 412-412c227.542 0 412 184.458 412 412 0 227.542-184.458 412-412 412zM399.332 597c-34.24 0-62-27.76-62-62s27.76-62 62-62c34.242 0 62 27.76 62 62s-27.758 62-62 62zM632.666 597c-34.242 0-62-27.76-62-62s27.758-62 62-62 62 27.76 62 62-27.758 62-62 62zM514 412.278c-51.648 0-93.518-46.412-93.518-103.666 0-57.256 41.87-103.668 93.518-103.668s93.518 46.412 93.518 103.668c0 57.254-41.87 103.666-93.518 103.666z" />
<glyph unicode="&#xe646;" d="M512 860c-227.542 0-412-184.458-412-412s184.458-412 412-412c227.542 0 412 184.458 412 412 0 227.542-184.458 412-412 412zM512 116c-183.48 0-332 148.486-332 332 0 183.482 148.488 332 332 332 183.482 0 332-148.486 332-332 0-183.484-148.486-332-332-332zM399.332 597c-34.24 0-62-27.76-62-62s27.76-62 62-62c34.242 0 62 27.76 62 62s-27.758 62-62 62zM632.666 597c-34.242 0-62-27.76-62-62s27.758-62 62-62 62 27.76 62 62-27.758 62-62 62zM610.312 243.88c-33.262 6.988-64.114 10.384-94.316 10.384-30.198 0-61.048-3.396-94.316-10.384-40.88-8.59-71.556 8.834-82.988 37.342-31.458 78.456 52.474 146.034 177.304 146.034 130.17 0 208.532-68.196 177.312-146.056-11.34-28.278-41.828-45.962-82.996-37.32zM515.996 316.266c59.42 0 112.46-24.664 118.016-10.27 29.526 76.506-265.12 79.678-236.026 0.010 5.074-13.894 59.43 10.26 118.010 10.26z" />
<glyph unicode="&#xe647;" d="M512 860c-227.542 0-412-184.458-412-412s184.458-412 412-412c227.542 0 412 184.458 412 412 0 227.542-184.458 412-412 412zM644.332 613.23c37.666 0 68.202-30.536 68.202-68.2 0-37.666-30.536-68.202-68.202-68.202s-68.2 30.536-68.2 68.202c0 37.666 30.534 68.2 68.2 68.2zM387.664 613.23c37.668 0 68.202-30.536 68.202-68.2 0-37.666-30.534-68.202-68.202-68.202-37.664 0-68.2 30.536-68.2 68.202 0 37.666 30.536 68.2 68.2 68.2zM721.334 256.16c-77.002 46.872-125.952 67.036-205.334 67.036s-128.332-20.164-205.336-67.036l-19.34 19.34c40.242 58.33 124.392 129.096 224.676 129.096s184.432-70.766 224.674-129.096l-19.34-19.34z" />
<glyph unicode="&#xe648;" d="M512 860c-227.542 0-412-184.458-412-412s184.458-412 412-412c227.542 0 412 184.458 412 412 0 227.542-184.458 412-412 412zM512 116c-183.48 0-332 148.486-332 332 0 183.482 148.488 332 332 332 183.482 0 332-148.486 332-332 0-183.484-148.486-332-332-332zM399.332 597c-34.24 0-62-27.758-62-62s27.76-62 62-62c34.242 0 62 27.758 62 62s-27.758 62-62 62zM632.666 597c-34.242 0-62-27.758-62-62s27.758-62 62-62 62 27.758 62 62-27.758 62-62 62zM720.25 289.972l-17.582-17.582c-70.002 42.61-114.502 60.942-186.668 60.942s-116.666-18.332-186.668-60.942l-17.582 17.582c36.584 53.028 113.084 117.36 204.25 117.36s167.666-64.332 204.25-117.36z" />
<glyph unicode="&#xe649;" d="M512 860c-227.542 0-412-184.458-412-412s184.458-412 412-412c227.542 0 412 184.458 412 412 0 227.542-184.458 412-412 412zM319.464 544.15c0 37.664 30.536 68.2 68.202 68.2s68.2-30.536 68.2-68.2-30.534-68.202-68.2-68.202-68.202 30.538-68.202 68.202zM692 275h-348v82h348v-82zM644.332 475.95c-37.666 0-68.2 30.538-68.2 68.202s30.534 68.2 68.2 68.2 68.202-30.536 68.202-68.2-30.536-68.202-68.202-68.202z" />
<glyph unicode="&#xe64a;" d="M512 780c183.482 0 332-148.486 332-332 0-183.484-148.486-332-332-332-183.48 0-332 148.486-332 332 0 183.482 148.488 332 332 332M512 860c-227.542 0-412-184.458-412-412s184.458-412 412-412c227.542 0 412 184.458 412 412 0 227.542-184.458 412-412 412zM399.332 597c-34.24 0-62-27.76-62-62s27.76-62 62-62c34.242 0 62 27.76 62 62s-27.758 62-62 62zM632.666 597c-34.242 0-62-27.76-62-62s27.758-62 62-62 62 27.76 62 62-27.758 62-62 62zM676 366h-316v-76h316v76z" />
<glyph unicode="&#xe64b;" d="M512 860c-227.542 0-412-184.458-412-412s184.458-412 412-412c227.542 0 412 184.458 412 412 0 227.542-184.458 412-412 412zM512 116c-183.48 0-332 148.486-332 332 0 183.482 148.488 332 332 332 183.482 0 332-148.486 332-332 0-183.484-148.486-332-332-332zM729.038 383.846c-14.7-50.798-99.46-148.306-213.042-148.306s-198.342 97.508-213.042 148.306h426.084zM733.678 515.73c-6.746-4.674-29.136-19.574-29.136-19.574s-19.43 36.648-67.432 36.648c-46.664 0-67.432-36.648-67.432-36.648s-22.39 14.9-29.136 19.574c10.9 28.888 46.566 77.352 96.568 77.352s85.668-48.462 96.568-77.352zM496.092 515.73c-6.746-4.674-29.136-19.574-29.136-19.574s-19.43 36.648-67.432 36.648c-46.664 0-67.432-36.648-67.432-36.648s-22.39 14.9-29.136 19.574c10.9 28.888 46.566 77.352 96.568 77.352s85.668-48.462 96.568-77.352z" />
<glyph unicode="&#xe64c;" d="M512 860c-227.542 0-412-184.458-412-412s184.458-412 412-412c227.542 0 412 184.458 412 412 0 227.542-184.458 412-412 412zM512 116c-183.48 0-332 148.486-332 332 0 183.482 148.488 332 332 332 183.482 0 332-148.486 332-332 0-183.484-148.486-332-332-332zM399.332 597c-34.24 0-62-27.76-62-62s27.76-62 62-62c34.242 0 62 27.76 62 62s-27.758 62-62 62zM632.666 597c-34.242 0-62-27.76-62-62s27.758-62 62-62 62 27.76 62 62-27.758 62-62 62zM565.998 316.002l57.924-57.924-48.084-48.084-57.922 57.922-57.924-57.922-48.084 48.084 57.922 57.924-57.922 57.922 48.084 48.084 57.924-57.924 57.922 57.924 48.084-48.084-57.924-57.922z" />
<glyph unicode="&#xe64d;" d="M512 860c-227.542 0-412-184.458-412-412s184.458-412 412-412c227.542 0 412 184.458 412 412 0 227.542-184.458 412-412 412zM644.334 614.53c37.666 0 68.2-30.536 68.2-68.2 0-37.666-30.534-68.202-68.2-68.202s-68.202 30.536-68.202 68.202c0 37.664 30.536 68.2 68.202 68.2zM387.668 614.53c37.664 0 68.2-30.536 68.2-68.2 0-37.666-30.536-68.202-68.2-68.202-37.666 0-68.202 30.536-68.202 68.202 0 37.664 30.536 68.2 68.202 68.2zM516 228.86c-110 0-191.398 72.536-235.674 140.096l19.34 19.34c59.402-46.934 124.668-75.836 216.334-75.836 91.668 0 156.934 28.902 216.336 75.836l19.34-19.34c-44.276-67.562-125.676-140.096-235.676-140.096z" />
<glyph unicode="&#xe64e;" d="M712.668 391.332c-54.002-42.666-113.334-68.942-196.668-68.942s-142.666 26.276-196.668 68.942l-17.582-17.582c40.25-61.418 114.25-127.36 214.25-127.36s174 65.942 214.25 127.36l-17.582 17.582zM512 860c-227.542 0-412-184.458-412-412s184.458-412 412-412c227.542 0 412 184.458 412 412 0 227.542-184.458 412-412 412zM512 116c-183.48 0-332 148.486-332 332 0 183.482 148.488 332 332 332 183.482 0 332-148.486 332-332 0-183.484-148.486-332-332-332zM733.678 515.73c-6.746-4.674-29.136-19.574-29.136-19.574s-19.43 36.648-67.432 36.648c-46.664 0-67.432-36.648-67.432-36.648s-22.39 14.9-29.136 19.574c10.9 28.888 46.566 77.352 96.568 77.352s85.668-48.462 96.568-77.352zM496.092 515.73c-6.746-4.674-29.136-19.574-29.136-19.574s-19.43 36.648-67.432 36.648c-46.664 0-67.432-36.648-67.432-36.648s-22.39 14.9-29.136 19.574c10.9 28.888 46.566 77.352 96.568 77.352s85.668-48.462 96.568-77.352z" />
<glyph unicode="&#xe64f;" d="M512 860c-227.542 0-412-184.458-412-412s184.458-412 412-412c227.542 0 412 184.458 412 412 0 227.542-184.458 412-412 412zM512 116c-183.48 0-332 148.486-332 332 0 183.482 148.488 332 332 332 183.482 0 332-148.486 332-332 0-183.484-148.486-332-332-332zM399.332 597c-34.24 0-62-27.76-62-62s27.76-62 62-62c34.242 0 62 27.76 62 62s-27.758 62-62 62zM632.666 597c-34.242 0-62-27.76-62-62s27.758-62 62-62 62 27.76 62 62-27.758 62-62 62zM729.038 383.846c-14.7-50.798-99.46-148.306-213.042-148.306s-198.342 97.508-213.042 148.306h426.084z" />
<glyph unicode="&#xe650;" d="M512 780c183.482 0 332-148.486 332-332 0-183.484-148.486-332-332-332-183.48 0-332 148.486-332 332 0 183.482 148.488 332 332 332M512 860c-227.542 0-412-184.458-412-412s184.458-412 412-412c227.542 0 412 184.458 412 412 0 227.542-184.458 412-412 412zM399.332 597c-34.24 0-62-27.76-62-62s27.76-62 62-62c34.242 0 62 27.76 62 62s-27.758 62-62 62zM632.666 597c-34.242 0-62-27.76-62-62s27.758-62 62-62 62 27.76 62 62-27.758 62-62 62zM348.6 332.662l19.956 21.064c92.972-56.592 190.66-58.030 286 0l20.844-21.064c-29.268-42.422-90.466-93.886-163.4-93.886s-134.134 51.464-163.4 93.886zM780.158 496.982l-36.966-17.644c17.318-35.322 11.008-83.726-15.164-113.010 7.892-6.482 20.2-16.552 31.552-25.674 36.732 40.616 46.742 106.126 20.578 156.328zM267.948 340.654c11.354 9.122 23.66 19.192 31.552 25.674-26.172 29.284-32.482 77.688-15.164 113.010l-36.966 17.644c-26.164-50.202-16.156-115.712 20.578-156.328z" />
<glyph unicode="&#xe651;" d="M643.326 489.578l-45.704-45.7-42.428 42.428 45.702 45.702-45.702 45.702 42.428 42.428 45.704-45.704 45.7 45.702 42.428-42.428-45.702-45.7 45.704-45.704-42.428-42.428-45.702 45.702zM432.028 443.876l42.428 42.428-45.704 45.704 45.702 45.7-42.428 42.428-45.7-45.702-45.704 45.704-42.428-42.428 45.702-45.702-45.702-45.702 42.428-42.428 45.704 45.7 45.702-45.702zM924 448c0-227.542-184.458-412-412-412s-412 184.458-412 412c0 227.542 184.458 412 412 412 227.542 0 412-184.458 412-412zM844 448c0 183.514-148.518 332-332 332-183.512 0-332-148.518-332-332 0-183.514 148.52-332 332-332 183.514 0 332 148.516 332 332zM674 290h-316v76h316v-76z" />
<glyph unicode="&#xe652;" d="M512 860c-227.542 0-412-184.458-412-412s184.458-412 412-412c227.542 0 412 184.458 412 412 0 227.542-184.458 412-412 412zM512 780c117.31 0 220.324-60.702 279.372-152.446h-558.74c59.042 91.738 162.044 152.446 279.368 152.446zM512 116c-183.48 0-332 148.486-332 332 0 40.648 7.3 79.572 20.642 115.554h50.814c10.408-58.924 57.65-133.294 141-133.294 81.078 0 70.488 75.628 120.95 75.628s39.872-75.628 120.95-75.628c83.35 0 130.592 74.372 141 133.294h48.004c13.34-35.978 20.64-74.904 20.64-115.554 0-183.484-148.486-332-332-332zM712.668 391.332l17.582-17.582c-40.25-61.418-114.25-127.36-214.25-127.36s-174 65.942-214.25 127.36l17.582 17.582c54.002-42.666 113.334-68.942 196.668-68.942s142.666 26.276 196.668 68.942z" />
<glyph unicode="&#xe653;" d="M512 860c-227.542 0-412-184.458-412-412s184.458-412 412-412c227.542 0 412 184.458 412 412 0 227.542-184.458 412-412 412zM512 116c-183.48 0-332 148.486-332 332 0 183.482 148.488 332 332 332 183.482 0 332-148.486 332-332 0-183.484-148.486-332-332-332zM679.398 281.952l-19.956-21.064c-92.972 56.592-190.66 58.030-286 0l-20.842 21.064c29.268 42.422 90.466 93.886 163.4 93.886s134.132-51.464 163.398-93.886zM399.332 561c-34.24 0-62-27.76-62-62s27.76-62 62-62c34.242 0 62 27.76 62 62s-27.758 62-62 62zM632.666 561c-34.242 0-62-27.76-62-62s27.758-62 62-62 62 27.76 62 62-27.758 62-62 62zM638 641.654l-122-122-122 122 35.356 35.356 86.644-86.644 86.644 86.644 35.356-35.356z" />
<glyph unicode="&#xe654;" d="M512 780c183.482 0 332-148.486 332-332 0-183.484-148.486-332-332-332-183.48 0-332 148.486-332 332 0 183.482 148.488 332 332 332M512 860c-227.542 0-412-184.458-412-412s184.458-412 412-412c227.542 0 412 184.458 412 412 0 227.542-184.458 412-412 412zM399.332 597c-34.24 0-62-27.758-62-62s27.76-62 62-62c34.242 0 62 27.758 62 62s-27.758 62-62 62zM632.666 597c-34.242 0-62-27.758-62-62s27.758-62 62-62 62 27.758 62 62-27.758 62-62 62zM712.668 391.332c-54.002-42.666-113.334-68.942-196.668-68.942s-142.666 26.276-196.668 68.942l-17.582-17.582c40.25-61.418 114.25-127.36 214.25-127.36s174 65.942 214.25 127.36l-17.582 17.582z" />
<glyph unicode="&#xe655;" d="M460.356 744.96c0-62.976-51.052-114.030-114.038-114.030-62.964 0-114.018 51.052-114.018 114.030 0 62.982 51.052 114.036 114.018 114.036 62.984 0 114.038-51.052 114.038-114.036zM346.328 265.076c-62.986 0-114.038-51.068-114.038-114.038 0-62.984 51.050-114.036 114.038-114.036 62.984 0 114.038 51.050 114.038 114.036 0 62.97-51.054 114.038-114.038 114.038zM520.258 739.446c91.046-8.744 170.018-59.456 217.28-132.514 34.118 15.68 71.982 19.584 107.642 12.224-63.526 131.058-197.91 221.646-353.062 221.646-0.202 0-0.402-0.008-0.604-0.008 19.384-29.266 29.892-64.198 28.744-101.348zM245.304 292.672c-60.176 94.848-60.428 216.006-0.608 311.108-28.804 20.792-51.018 50.17-62.858 84.354-109.222-141.222-109.128-338.154 0.338-479.282 12.012 34.006 34.3 63.198 63.128 83.82zM737.542 290.496c-47.272-73.076-126.26-123.792-217.328-132.526 1.436-36.774-8.56-71.744-27.758-101.35 155.012 0.132 289.25 90.684 352.728 221.652-35.568-7.336-73.424-3.502-107.642 12.224zM809.964 562.74c-62.966 0-114.020-51.050-114.020-114.028 0-62.974 51.052-114.026 114.020-114.026 62.982 0 114.036 51.050 114.036 114.026 0 62.978-51.052 114.028-114.036 114.028z" />
<glyph unicode="&#xe656;" d="M139.946 860v-577.1h746.458v577.1h-746.458zM810.106 359.192h-593.868l-0.004 424.52h593.872v-424.52zM480.036 569.474l-114.492-106.56-41.368 38.124 73.516 68.438-73.618 68.536 41.372 38.122 114.59-106.66zM682.714 517.682h-170.98v-53.004h170.98v53.004zM886.402 223.68h-748.804v-187.68h748.804v187.68zM187.398 88.676l32.926 82.322h39.778l-32.926-82.322h-39.778zM251.872 88.676l32.926 82.322h39.774l-32.926-82.322h-39.774zM316.336 88.676l32.926 82.322h39.778l-32.93-82.322h-39.774zM380.808 88.676l32.922 82.322h39.774l-32.926-82.322h-39.77zM485.050 88.676h-39.778l32.934 82.322h39.77l-32.926-82.322zM797.496 102.344c-15.18 0-27.488 12.31-27.488 27.498 0 15.18 12.308 27.488 27.488 27.488 15.188 0 27.496-12.308 27.496-27.488 0-15.188-12.308-27.498-27.496-27.498z" />
<glyph unicode="&#xe657;" d="M764.212 317.566c-77.75 0-140.786-63.030-140.786-140.786 0-77.754 63.036-140.782 140.786-140.782 77.754 0 140.79 63.028 140.79 140.782 0 77.758-63.036 140.786-140.79 140.786zM731.108 78.566l35.68 83.898-70.668-20.86 111 134.828-33.566-76.086 70.332 20.462-112.778-142.242zM778.044 698.91h-619.096l122.094 161.090h373.414l123.588-161.090zM816.498 370.594v61.488h-697.5v-174.826h461.34c39.718 90.396 139.706 139.374 236.16 113.338zM165.388 306.328l30.672 76.68h37.050l-30.672-76.68h-37.050zM225.444 306.328l30.672 76.68h37.046l-30.672-76.68h-37.046zM285.494 306.328l30.668 76.68h37.050l-30.672-76.68h-37.046zM345.544 306.328l30.668 76.68h37.046l-30.664-76.68h-37.050zM405.6 306.328l30.672 76.68h37.046l-30.676-76.68h-37.042zM816.498 652.908h-697.5v-174.824h697.5v174.824zM165.388 527.154l30.672 76.684h37.050l-30.672-76.684h-37.050zM225.444 527.154l30.672 76.684h37.046l-30.672-76.684h-37.046zM285.494 527.154l30.668 76.684h37.050l-30.672-76.684h-37.046zM345.544 527.154l30.668 76.684h37.046l-30.664-76.684h-37.050zM442.642 527.154h-37.042l30.672 76.684h37.046l-30.676-76.684zM733.686 539.888c-14.136 0-25.61 11.466-25.61 25.61s11.472 25.606 25.61 25.606c14.148 0 25.614-11.462 25.614-25.606s-11.466-25.61-25.614-25.61zM566.502 211.55h-447.504v-174.824h501.57c-45.944 47.11-65.066 112.146-54.066 174.824zM165.388 85.796l30.672 76.68h37.050l-30.672-76.68h-37.050zM225.444 85.796l30.672 76.68h37.046l-30.672-76.68h-37.046zM285.494 85.796l30.668 76.68h37.050l-30.672-76.68h-37.046zM345.544 85.796l30.668 76.68h37.046l-30.664-76.68h-37.050zM442.642 85.796h-37.042l30.672 76.68h37.046l-30.676-76.68z" />
<glyph unicode="&#xe658;" d="M861.056 652.724h-698.112v-174.976h698.114v174.976zM209.374 526.862l30.7 76.75h37.082l-30.7-76.75h-37.082zM269.482 526.862l30.696 76.75h37.082l-30.7-76.75h-37.078zM329.584 526.862l30.696 76.75h37.082l-30.7-76.75h-37.078zM389.69 526.862l30.696 76.75h37.078l-30.692-76.75h-37.082zM486.874 526.862h-37.078l30.7 76.75h37.082l-30.704-76.75zM778.17 539.606c-14.148 0-25.628 11.478-25.628 25.632s11.48 25.628 25.628 25.628c14.16 0 25.636-11.474 25.636-25.628s-11.476-25.632-25.636-25.632zM822.568 698.768h-619.64l122.198 161.232h373.742l123.7-161.232zM861.056 431.708h-698.112v-174.98h698.114v174.98zM209.374 305.84l30.7 76.75h37.082l-30.7-76.75h-37.082zM269.482 305.84l30.696 76.75h37.082l-30.7-76.75h-37.078zM329.584 305.84l30.696 76.75h37.082l-30.7-76.75h-37.078zM389.69 305.84l30.696 76.75h37.078l-30.692-76.75h-37.082zM486.874 305.84h-37.078l30.7 76.75h37.082l-30.704-76.75zM778.17 318.586c-14.148 0-25.628 11.472-25.628 25.628 0 14.16 11.48 25.628 25.628 25.628 14.16 0 25.636-11.468 25.636-25.628 0-14.156-11.476-25.628-25.636-25.628zM861.056 210.98h-698.112v-174.98h698.114v174.98zM209.374 85.114l30.7 76.75h37.082l-30.7-76.75h-37.082zM269.482 85.114l30.696 76.75h37.082l-30.7-76.75h-37.078zM329.584 85.114l30.696 76.75h37.082l-30.7-76.75h-37.078zM389.69 85.114l30.696 76.75h37.078l-30.692-76.75h-37.082zM486.874 85.114h-37.078l30.7 76.75h37.082l-30.704-76.75zM778.17 97.864c-14.148 0-25.628 11.468-25.628 25.624 0 14.16 11.48 25.628 25.628 25.628 14.16 0 25.636-11.468 25.636-25.628 0-14.156-11.476-25.624-25.636-25.624z" />
<glyph unicode="&#xe659;" d="M924 559.376h-824v-206.528h824v206.528zM154.802 410.818l36.232 90.59h43.772l-36.234-90.59h-43.77zM225.748 410.818l36.232 90.59h43.768l-36.232-90.59h-43.768zM296.69 410.818l36.232 90.59h43.768l-36.234-90.59h-43.766zM367.634 410.818l36.23 90.59h43.766l-36.228-90.59h-43.768zM482.344 410.818h-43.768l36.234 90.59h43.772l-36.238-90.59zM826.168 425.862c-16.704 0-30.25 13.546-30.25 30.254s13.546 30.25 30.25 30.25c16.712 0 30.258-13.542 30.258-30.25s-13.546-30.254-30.258-30.254zM878.574 613.724h-731.38l144.238 190.304h441.134l146.008-190.304zM924 298.502h-824v-206.532h824v206.532zM154.802 149.944l36.232 90.586h43.772l-36.234-90.586h-43.77zM225.748 149.944l36.232 90.586h43.768l-36.232-90.586h-43.768zM296.69 149.944l36.232 90.586h43.768l-36.234-90.586h-43.766zM367.634 149.944l36.23 90.586h43.766l-36.228-90.586h-43.768zM482.344 149.944h-43.768l36.234 90.586h43.772l-36.238-90.586zM826.168 164.986c-16.704 0-30.25 13.542-30.25 30.25 0 16.71 13.546 30.25 30.25 30.25 16.712 0 30.258-13.54 30.258-30.25 0-16.706-13.546-30.25-30.258-30.25z" />
<glyph unicode="&#xe65a;" d="M323.514 147.502c0-61.582-49.92-111.502-111.5-111.502s-111.502 49.92-111.502 111.502 49.922 111.5 111.502 111.5c61.578 0 111.5-49.918 111.5-111.5zM100.512 579.152v-165.186c207.476-2.132 375.832-170.488 377.964-377.966h165.186c-2.134 299.040-244.114 541.018-543.15 543.152zM100.512 694.796c175.39-0.762 340.168-69.39 464.27-193.494 124.35-124.346 193.012-289.528 193.508-465.302h165.2c-1.034 454.284-368.824 822.412-822.978 824v-165.204z" />
<glyph unicode="&#xe65b;" d="M512 780c88.68 0 172.052-34.534 234.76-97.24 62.706-62.708 97.24-146.080 97.24-234.76 0-88.68-34.534-172.052-97.24-234.76-62.708-62.704-146.080-97.24-234.76-97.24s-172.052 34.536-234.76 97.24c-62.706 62.708-97.24 146.080-97.24 234.76 0 88.68 34.534 172.052 97.24 234.76 62.708 62.706 146.080 97.24 234.76 97.24M512 860c-227.542 0-412-184.458-412-412s184.458-412 412-412 412 184.458 412 412-184.458 412-412 412v0zM450.766 330.118c0-27.852-22.574-50.422-50.422-50.422s-50.422 22.57-50.422 50.422c0 27.848 22.574 50.418 50.422 50.418s50.422-22.572 50.422-50.418zM349.922 525.308v-74.698c93.82-0.964 169.954-77.094 170.918-170.914h74.696c-0.968 135.224-110.39 244.646-245.614 245.612zM349.922 577.602c79.31-0.346 153.824-31.378 209.944-87.5 56.23-56.23 87.28-130.924 87.506-210.408h74.704c-0.47 205.426-166.784 371.894-372.152 372.612v-74.704z" />
<glyph unicode="&#xe65c;" d="M512 860c-227.542 0-412-184.458-412-412s184.458-412 412-412 412 184.458 412 412-184.458 412-412 412zM378.406 246.816c-32.762 0-59.32 26.556-59.32 59.32 0 32.762 26.558 59.316 59.32 59.316s59.318-26.554 59.318-59.316c0-32.762-26.556-59.32-59.318-59.32zM520.166 246.816c-1.134 110.378-90.704 199.942-201.080 201.078v87.878c159.088-1.136 287.82-129.868 288.958-288.958h-87.878zM669.026 246.816c-0.266 93.512-36.792 181.386-102.948 247.542-66.022 66.024-153.686 102.534-246.992 102.94v87.888c241.612-0.844 437.274-196.69 437.826-438.368h-87.886z" />
<glyph unicode="&#xe65d;" d="M824 860h-624c-55.228 0-100-44.772-100-100v-624c0-55.228 44.772-100 100-100h624c55.228 0 100 44.772 100 100v624c0 55.228-44.772 100-100 100zM302.010 159.6c-43.108 0-78.052 34.944-78.052 78.052 0 43.106 34.946 78.048 78.052 78.048s78.048-34.944 78.048-78.048c0-43.11-34.94-78.052-78.048-78.052zM488.536 159.6c-1.494 145.236-119.344 263.084-264.578 264.576v115.63c209.326-1.494 378.71-170.88 380.208-380.206h-115.63zM684.402 159.6c-0.348 123.042-48.41 238.67-135.456 325.712-86.872 86.874-202.216 134.912-324.99 135.446v115.642c317.91-1.112 575.362-258.802 576.086-576.8h-115.64z" />
<glyph unicode="&#xe65e;" d="M100 860v-824h824v824h-824zM302.010 159.6c-43.108 0-78.052 34.944-78.052 78.052 0 43.106 34.946 78.048 78.052 78.048s78.048-34.944 78.048-78.048c0-43.11-34.94-78.052-78.048-78.052zM488.536 159.6c-1.494 145.236-119.344 263.084-264.578 264.576v115.63c209.326-1.494 378.71-170.88 380.208-380.206h-115.63zM684.402 159.6c-0.348 123.042-48.41 238.67-135.456 325.712-86.872 86.874-202.216 134.912-324.99 135.446v115.642c317.91-1.112 575.362-258.802 576.086-576.8h-115.64z" />
<glyph unicode="&#xe65f;" d="M746.76 682.76c129.744-129.748 129.76-339.756 0-469.52-129.748-129.744-339.756-129.76-469.52 0-129.744 129.748-129.76 339.756 0 469.52 129.744 129.742 339.756 129.762 469.52 0zM512 860c-227.542 0-412-184.458-412-412s184.458-412 412-412 412 184.458 412 412c0 227.542-184.458 412-412 412zM392.618 510.568v-152.962h144.57l64.71-64.714h-273.992v217.676h-56.448l88.1 88.54 88.546-88.54h-55.486zM708.028 382.082v217.026h-274.016l64.71-64.712h144.594v-152.314h-55.42l88.544-88.542 88.1 88.542h-56.512z" />
<glyph unicode="&#xe660;" d="M512 860c-227.542 0-412-184.458-412-412s184.458-412 412-412 412 184.458 412 412c0 227.542-184.458 412-412 412zM297.984 272.014v247.36h-64.144l100.114 100.614 100.622-100.614h-63.052v-173.822h164.284l73.536-73.538h-311.36zM694.046 272.748l-100.62 100.62h62.978v173.082h-164.312l-73.536 73.538h311.382v-246.62h64.218l-100.11-100.62z" />
<glyph unicode="&#xe661;" d="M348.118 251.252c-0.062 0.016-0.124 0.028-0.186 0.042-51.784-31.93-165.966-64.214-246.282-78.824 29.968 59.45 63.232 141.054 61.528 197.954-40.372 48.554-63.178 111.128-63.178 174.86 0 179.68 174.766 311.054 370.418 311.054 194.44 0 370.422-130.386 370.422-311.054 0-2.566-0.054-5.128-0.132-7.688-22.57 12.176-47.012 22.074-73.244 29.36-13.708 121.722-141.684 217.43-297.044 217.43-164.474 0-298.282-107.262-298.282-239.102 0-69.376 30.018-113.058 72.384-156.136-8.612-63.96-29.292-119.562-29.292-119.562s61.084 16.128 130.506 56.55c-2.946-25.368-2.124-50.338 2.382-74.884zM880.524 175.888c27.776 33.414 43.476 76.474 43.476 120.328 0 123.652-120.264 214.058-254.908 214.058-133.802 0-254.906-89.726-254.906-214.058 0-129.46 142.996-250.368 339.2-202.308 35.634-21.972 114.21-44.188 169.478-54.246-20.622 40.914-43.516 97.070-42.34 136.226zM656.002 304.898c0-53.764-33.974-90.202-83.48-99.994l-9.378 20.278c22.924 8.638 37.466 29.32 37.466 50.156h-38.7v89.698h94.092c0 0 0-28.632 0-60.138zM788.104 304.898c0-53.764-33.972-90.202-83.476-99.994l-9.38 20.278c22.924 8.638 37.466 29.32 37.466 50.156h-38.698v89.698h94.088c0 0 0-28.632 0-60.138zM458.682 532.236c0 0 0 29.644 0 62.264 0 55.666 35.176 93.39 86.434 103.532l9.71-20.994c-23.734-8.946-38.792-30.358-38.792-51.932h40.068v-92.87h-97.42zM321.908 532.236c0 0 0 29.644 0 62.264 0 55.666 35.174 93.39 86.43 103.532l9.71-20.994c-23.734-8.946-38.792-30.358-38.792-51.932h40.066v-92.87h-97.414z" />
<glyph unicode="&#xe662;" d="M489.17 488.286c0-81.708-51.634-137.086-126.87-151.968l-14.254 30.812c34.84 13.132 56.938 44.56 56.938 76.23h-58.812v136.32h142.998c0 0 0-43.516 0-91.394zM689.938 488.286c0-81.708-51.63-137.086-126.87-151.968l-14.254 30.812c34.838 13.132 56.942 44.56 56.942 76.23h-58.814v136.32h142.996c0 0 0-43.516 0-91.394zM101.836 66.706c33.33 66.294 70.33 157.294 68.434 220.742-44.902 54.144-70.27 123.92-70.27 194.986 0 200.366 194.38 346.862 412 346.862 216.264 0 412-145.396 412-346.862 0-209.788-231.124-405.706-548.238-327.828-57.596-35.606-184.596-71.606-273.926-87.9zM512 749.062c-182.938 0-331.768-119.61-331.768-266.628 0-77.36 33.388-126.074 80.512-174.11-9.578-71.324-32.578-133.324-32.578-133.324s68 18 145.258 63.12c295.61-78.388 470.342 92.188 470.342 244.314 0 147.020-148.83 266.628-331.766 266.628z" />
<glyph unicode="&#xe663;" d="M512 829.294c-217.62 0-412-146.496-412-346.862 0-71.066 25.368-140.842 70.27-194.986 1.896-63.446-35.104-154.446-68.434-220.74 89.33 16.294 216.33 52.294 273.926 87.9 317.114-77.878 548.238 118.040 548.238 327.828 0 201.464-195.736 346.86-412 346.86zM492.906 491.65c0-90.788-57.37-152.318-140.964-168.854l-15.84 34.236c38.712 14.592 63.266 49.512 63.266 84.7h-65.348v151.468h158.886c0 0.002 0-48.35 0-101.55zM715.982 491.65c0-90.788-57.37-152.318-140.966-168.854l-15.838 34.236c38.708 14.592 63.268 49.512 63.268 84.7h-65.348v151.468h158.884c0 0.002 0-48.35 0-101.55z" />
<glyph unicode="&#xe664;" d="M746.76 682.76c129.74-129.74 129.764-339.756 0-469.52-129.746-129.746-339.756-129.764-469.52 0-129.738 129.738-129.764 339.756 0 469.52 129.746 129.746 339.756 129.764 469.52 0zM512 860.002c-227.542 0-412-184.46-412-412.004 0-227.54 184.458-412 412-412s412 184.46 412 412c0 227.544-184.458 412.004-412 412.004zM486.018 563.156c0 0 0-51.194 0-107.526 0-96.124-60.744-161.278-149.256-178.788l-16.774 36.252c40.988 15.45 66.99 52.426 66.99 89.682h-69.196v160.378h168.236zM722.216 563.156c0 0 0-51.194 0-107.526 0-96.124-60.744-161.278-149.258-178.788l-16.772 36.252c40.986 15.45 66.988 52.426 66.988 89.682h-69.192v160.378h168.234z" />
<glyph unicode="&#xe665;" d="M512 860.002c-227.542 0-412-184.46-412-412.004 0-227.54 184.458-412 412-412s412 184.46 412 412c0 227.544-184.458 412.004-412 412.004zM487.24 459.59c0-106.806-67.494-179.198-165.84-198.65l-18.636 40.28c45.542 17.166 74.432 58.248 74.432 99.644h-76.88v178.2h186.926c-0.002-0.002-0.002-56.884-0.002-119.474zM749.684 459.59c0-106.806-67.494-179.198-165.842-198.65l-18.634 40.28c45.54 17.166 74.432 58.248 74.432 99.644h-76.88v178.2h186.924c0-0.002 0-56.884 0-119.474z" />
<glyph unicode="&#xe666;" d="M288.22 564.278h-5.958v5.958h5.958v-5.958zM347.18 564.278h-5.956v-5.834h5.956v5.834zM341.224 558.444h-5.836v5.834h-5.956v-23.582h11.792v5.958h5.956v5.834h-5.956v5.956zM294.052 576.074h5.958v5.956h-5.958v-5.956zM288.22 593.822h-11.794v-5.96h5.836v-5.832h5.958v11.792zM347.18 534.86h5.958v5.836h-5.958v-5.836zM341.224 599.654h-17.628v-17.624h17.628v17.624zM300.010 593.822h-11.79v5.832h-11.794v5.958h11.794v5.836h17.624v-29.418h-5.834v11.792zM300.010 599.654v5.958h-5.958v-5.958h5.958zM270.468 570.364h-41.208v41.208h41.208v-41.208zM264.638 605.734h-29.542v-29.54h29.542v29.54zM258.678 599.654h-17.624v-17.624h17.624v17.624zM347.18 552.486h5.958v5.958h-5.958v-5.958zM276.426 582.030v-11.794h5.836v11.794h-5.836zM353.136 570.364h-41.332v41.208h41.332v-41.208zM347.18 605.734h-29.542v-29.54h29.542v29.54zM305.844 570.234v5.84h-5.834v-5.84h5.834zM288.22 570.234h5.832v5.84h-5.832v-5.84zM311.804 523.070v5.834h-5.96v-5.834h5.96zM258.678 558.444v5.834h-29.416v-5.834h11.792v-5.958h5.838v5.958h11.786zM264.638 552.486v5.958h-5.96v-5.958h5.96zM241.052 540.696h11.792v-5.836h5.832v11.792h-5.832v5.834h-5.956v-5.834h-11.792v-5.958h-5.836v-5.836h11.792v5.838zM270.468 558.444h-5.83v5.834h17.624v-5.834h-5.836v-5.958h5.836v5.958h11.792v5.834h5.958v-5.834h5.834v5.834h5.96v-5.834h5.832v-5.958h5.958v-5.834h-5.836v-5.958h-11.916v-11.792h-5.834v11.792h-11.79v5.958h-5.832v-5.958h-11.92v5.958h-5.83v5.834h5.83v5.958zM305.844 546.652h5.96v5.834h-5.96v-5.834zM294.052 546.652h5.958v5.834h-5.958v-5.834zM258.678 517.112h-17.624v-17.624h17.624v17.624zM689.496 676.292c-27.668 38.9-172.734 64.24-231.468 72.38-5.816-24.282 3.816-54.896 29.484-69.36 25.054-14.122 97.734-36.020 119.23-56.854 27.856-26.994 69.582-155.956 0.98-243.282-71.27 19.666-145.57 17.602-185.914 1.602-39.614-15.708-34.758-63.738 6.512-68.318 117.422-13.030 260.472-38.8 354.398-165.132 0 0 62.516 62.974 141.282 147.87-125.958 101.982-144.172 254.098-234.504 381.094zM370.554 408.38h-238.768c-17.554 0-31.786 14.23-31.786 31.786v212.454c0 17.556 14.23 31.788 31.786 31.788h284.218c26.578-56.386 73.476-59.078 138.882-90.124v-152.402c-56.268 6.642-143.428 5.202-184.332-33.502zM416.328 639.154h-249.21v-180.72h249.21v180.72zM483.554 514.444c16.292 0 29.5 13.208 29.5 29.5s-13.208 29.5-29.5 29.5-29.5-13.208-29.5-29.5 13.208-29.5 29.5-29.5zM270.468 487.57h-41.208v41.334h41.208v-41.334zM264.638 523.070h-29.542v-29.54h29.542v29.54zM323.596 528.904v11.792h-5.836v-11.792h5.836zM323.596 511.28v-11.792h-5.958v-5.956h-11.792v-5.96h-5.834v5.96h-5.958v5.956h5.958v5.836h-17.748v-11.792h11.792v-5.96h-17.626v29.542h5.836v5.958h5.958v5.834h11.79v-5.834h-5.958v-5.958h5.958v-5.832h5.71v5.832h6.084v-5.832h11.788zM311.804 505.322h-5.96v-5.836h5.96v5.836zM264.638 534.86h5.83v5.836h-5.83v-5.836zM317.636 523.070v-5.958h5.958v-5.832h5.838v5.832h11.792v-5.832h5.956v17.624h-11.792v-5.834h-5.956v5.834h-5.838v-5.834h-5.958zM347.18 487.57v6.082h-5.956v-6.082h5.956zM335.388 534.86h-5.956v-5.956h5.956v5.956zM276.426 534.86v-11.79h5.836v11.79h-5.836zM323.596 499.486v-11.916h5.838v6.082h11.792v11.67h-5.836v-5.836h-11.794zM323.596 564.278h-5.958v-5.834h5.958v5.834zM335.388 505.322v5.958h-5.956v-5.958h5.956z" />
<glyph unicode="&#xe667;" d="M386.41 624.722v-83.556h83.558v83.556h-83.558zM458.14 552.994h-59.898v59.898h59.898v-59.898zM553.778 624.722v-83.556h83.812v83.556h-83.812zM625.508 552.994h-59.902v59.898h59.902v-59.898zM410.32 600.56h35.738v-35.736h-35.738v35.736zM577.692 600.56h35.738v-35.736h-35.738v35.736zM577.692 481.014v-23.91h-11.832v23.91h11.832zM637.59 481.014v-11.83h-12.082v11.83h12.082zM386.41 457.104v-83.81h83.558v83.81h-83.558zM458.14 385.376h-59.898v59.898h59.898v-59.898zM410.32 433.194h35.738v-35.736h-35.738v35.736zM601.598 421.366v-12.080h-12.078v12.080h12.078zM505.96 540.912v11.83h11.828v12.082h12.078v23.908h-23.906v-23.908h-12.082v-23.912h-11.828v23.912h11.828v11.828h-11.828v12.080h23.91v11.828h-23.91v12.080h23.91v11.83h35.734v-59.646h-11.828v-12.082h11.828v-11.83h-11.828v11.83h-12.078v-11.83h-11.828v-12.082h-12.082v-11.828h-11.828v-12.078h11.828v12.078h23.91v11.828h12.078v-11.828h11.828v11.828h12.082v-11.828h11.828v11.828h12.086v-11.828h-12.086v-12.078h12.086v-11.828h-11.832v-12.082h-24.164v-23.91h12.082v-11.83h-12.082v11.83h-11.828v-11.83h-12.078v-12.080h12.078v-11.828h11.578v11.828h12.332v-11.828h23.914v11.828h-12.086v12.080h12.086v11.83h11.828v12.080h12.078v-12.080h-12.078v-11.83h12.078v11.83h23.91v-35.738h-12.078v11.828h-23.908v-11.828h-11.828v-23.908h-12.086v-12.082h-23.91v-12.082h-11.828v12.082h-12.078v12.082h12.078v11.828h-35.988v-23.91h23.91v-12.082h-35.738v59.9h11.828v12.080h-11.828v23.91h11.828v-23.91h12.082v11.83h23.906v23.91h-23.908v12.082h-11.828v-12.082h-24.164v-11.83h-11.828v11.83h11.828v12.082h-11.828v11.828h11.828v12.078h-11.828v-12.078h-12.082v12.078h-23.906v-12.078h12.078v-11.828h11.828v-23.912h-11.828v11.83h-23.91v-11.83h-23.91v11.83h11.832v12.082h23.91v11.828h-11.832v12.078h-23.91v11.828h59.648v-11.828h12.082v11.828h35.738v12.082h12.082zM517.79 504.924v-11.828h12.078v11.828h-12.078zM541.696 504.924v-11.828h12.082v11.828h-12.082zM541.696 409.286v-11.828h12.082v11.828h-12.082zM517.79 612.64v-12.080h12.078v12.080h-12.078zM613.43 409.286v-23.658h12.078v-12.334h-12.078v12.334h-23.91v-12.334h-11.828v24.164h23.906v11.828h11.832zM637.59 517.002v-12.078h-12.082v-11.828h-12.078v-12.082h-23.91v47.816h12.078v-11.828h11.832v11.828h12.078v-11.828h-12.078v-12.078h12.078v12.078h12.082zM707.55 860h-391.1c-26.74 0-48.418-21.678-48.418-48.418 0 0 0.016-639.674 0-664.544-0.064-102.938 152.074-110.978 243.634-111.038s244.302 7.84 244.302 111.038c0 24.94 0 664.544 0 664.544 0 26.74-21.676 48.418-48.418 48.418zM512 99.598c-26.728 0-48.4 21.67-48.4 48.4s21.672 48.4 48.4 48.4c26.73 0 48.4-21.67 48.4-48.4s-21.67-48.4-48.4-48.4zM684.732 248.768h-345.464v496.12h345.464v-496.12z" />
<glyph unicode="&#xe668;" d="M924 123.654l-121.514 121.512c19.876 31.324 31.406 68.446 31.406 108.218 0 111.696-90.872 202.562-202.57 202.562-111.694 0-202.562-90.868-202.562-202.562s90.87-202.57 202.562-202.57c37.796 0 73.202 10.418 103.514 28.516l122.422-122.426 66.742 66.75zM504.276 353.384c0 70.058 56.996 127.050 127.046 127.050 70.060 0 127.058-56.992 127.058-127.050s-56.998-127.046-127.058-127.046c-70.050 0-127.046 56.988-127.046 127.046zM100 165.744h223.778v224.454h-223.778v-224.454zM131.68 358.518h160.416v-160.418h-160.416v160.418zM164.036 326.166h95.708v-95.71h-95.708v95.71zM323.778 839.096h-223.778v-223.778h223.778v223.778zM292.096 646.998h-160.416v160.418h160.416v-160.418zM772.674 839.096h-224.452v-223.778h224.452v223.778zM740.322 646.998h-160.418v160.418h160.418v-160.418zM707.964 678.678h-95.704v95.714h95.704v-95.714zM259.744 678.678h-95.708v95.714h95.708v-95.714zM381.3 422.548c-5.664-20.454-8.88-41.906-9.312-64.032h-15.862v64.032h25.174zM292.096 454.232h31.682v-31.684h-31.682v31.684zM451.844 678.678h32.35v-32.356h-32.35v32.356zM484.194 678.678h31.676v159.742h-95.706v-31.68h-64.038v-32.348h64.038v-31.68h64.030v-64.034zM451.844 774.392v32.348h32.35v-32.348h-32.35zM420.164 582.292h-32.36v32.356h32.36v-32.356zM420.164 678.678h-32.36v31.676h-31.678v32.36h64.038v-64.036zM388.482 454.232h-64.706v32.352h-31.682v31.676h31.682v32.352h-31.682v31.68h95.708v-31.68h-31.678v-32.352h31.678v32.352h64.040v31.68h32.35v-15.39c-30.478-21.066-56.246-48.476-75.376-80.316h-20.334v-32.354zM451.844 166.276v-0.532h-95.716v160.422h17.222c2.334-22.3 7.518-43.766 15.16-64.036h-0.706v-64.032h35.854c8.522-11.362 17.954-22.002 28.186-31.822zM387.804 678.678v-64.032h-31.678v64.032h31.678zM292.096 550.612v-32.352h-32.352v32.352h32.352zM259.744 582.292v-31.68h-64.036v-32.352h-31.672v32.352h-64.036v31.68h159.744zM484.194 614.646v31.676h31.676v-31.676h-31.676zM420.164 646.322h31.68v-31.676h-31.68v31.676zM195.708 486.584v31.676h32.362v-31.676h31.676v-64.036h-31.676v31.684h-64.034v-31.684h-64.036v31.684h31.68v32.352h64.028z" />
<glyph unicode="&#xe669;" d="M512 860c-227.542 0-412-184.458-412-412 0-227.54 184.458-412 412-412 227.54 0 412 184.46 412 412 0 227.542-184.46 412-412 412zM582 251h-140v394h140v-394z" />
<glyph unicode="&#xe66a;" d="M502.422 277.918c-33.358-13.098-69.68-20.294-107.684-20.294-162.78 0-294.738 131.958-294.738 294.738 0 162.782 131.958 294.738 294.738 294.738s294.738-131.956 294.738-294.738c0-63.174-19.882-121.698-53.722-169.674l-35.784 49.972c21.042 35.938 32.278 76.956 32.278 119.702 0 63.442-24.708 123.084-69.566 167.944s-104.502 69.566-167.944 69.566c-63.44 0-123.082-24.708-167.944-69.566-44.858-44.86-69.564-104.502-69.564-167.944 0-63.438 24.708-123.082 69.564-167.94 44.862-44.862 104.504-69.566 167.944-69.566 25.378 0 50.148 3.964 73.608 11.58l34.076-48.518zM344.66 420.73h50.754c-0.030 1.008-0.078 2.008-0.078 3.022 0 37.356 19.804 70.082 49.48 88.27v171.972h-100.156v-263.264zM471.648 375.164c-7.746 23.142 1.144 47.558 21.246 61.898 10.122 7.218 21.73 10.922 33.232 10.922 11.354 0 22.6-3.606 32.218-10.988-7.5 25.13-30.352 40.214-54.092 40.216-11.14 0-22.472-3.32-32.512-10.482-31.502-22.47-31.358-69.18-0.092-91.566zM565.84 145.516c24.998-8.398 102.398-29.822 192.044-96.616 57.132 40.744 111.864 79.782 166.116 118.474-43.088 60.412-31.216 102.672-74.026 162.692-16.608 23.284-31.61 38.682-55.894 38.68-6.412 0-11.212-0.948-20.49-2.668l15.062-21.124c3.782-5.302 2.548-12.67-2.75-16.452-5.326-3.79-12.688-2.54-16.45 2.754l-13.45 18.852c-3.9 5.464-10.17 8.606-16.716 8.606-2.434 0-2.142 0.248-34.91-7.312l18.286-25.632c3.782-5.302 2.544-12.666-2.758-16.454-5.288-3.77-12.66-2.55-16.448 2.76l-15.826 22.186c-3.906 5.476-10.178 8.608-16.706 8.608-2.948 0-2.392 0.19-36-8.338l19.346-27.122c3.778-5.3 2.546-12.66-2.762-16.448-5.298-3.784-12.668-2.548-16.446 2.752l-78.458 109.832c-10.328 14.488-30.454 17.874-44.966 7.526-14.49-10.34-17.868-30.47-7.524-44.966l115.854-162.43c-31.062 11.472-79.124 16.542-88.036-15.708-5.294-19.174 10.094-34.45 33.908-42.452z" />
<glyph unicode="&#xe66b;" d="M621.676 264h-140v368h140v-368zM908.618 654.080c-73.626 127.524-209.692 206.080-356.942 206.080-110.746 0-215.16-44.434-291.45-120.712l56.624-56.624c61.464 61.458 145.594 97.26 234.824 97.26 118.64 0 228.27-63.294 287.594-166.042 59.32-102.746 59.32-229.334 0-332.084-59.324-102.746-168.954-166.040-287.594-166.040-118.644 0-228.274 63.292-287.594 166.040-29.414 50.95-44.226 107.762-44.468 164.622h81.364l-120.164 167.42-120.648-167.42h79.376c0.242-70.684 18.628-141.32 55.196-204.66 73.624-127.526 209.69-206.080 356.94-206.080s283.316 78.554 356.942 206.078 73.624 284.638 0 412.162z" />
<glyph unicode="&#xe66c;" d="M512 780c88.68 0 172.050-34.534 234.758-97.242 62.706-62.706 97.242-146.078 97.242-234.758s-34.536-172.050-97.242-234.758-146.078-97.242-234.758-97.242-172.052 34.536-234.76 97.242c-62.704 62.708-97.24 146.078-97.24 234.758 0 88.68 34.536 172.052 97.24 234.76 62.708 62.706 146.080 97.24 234.76 97.24M512 860c-227.542 0-412-184.458-412-412 0-227.54 184.458-412 412-412 227.54 0 412 184.46 412 412 0 227.542-184.46 412-412 412zM582 264h-140v368h140v-368z" />
<glyph unicode="&#xe66d;" d="M582 491.998h-140v368.002h140v-368.002zM844.854 612.518c-28.546 49.446-67.158 90.994-112.4 122.668l-46.89-66.966c35.62-24.936 66.020-57.648 88.494-96.574 54.052-93.624 54.052-208.974 0-302.598-54.054-93.624-153.95-151.298-262.056-151.298s-208.004 57.676-262.058 151.298c-54.052 93.624-54.052 208.972 0 302.598 3.51 6.078 7.222 11.994 11.11 17.764l66.488-47.824v206.076l-195.778-65.262 62.92-45.256c-5.452-7.982-10.658-16.174-15.538-24.626-68.658-118.916-68.658-265.428 0-384.346 68.656-118.916 195.54-192.172 332.854-192.172 137.312 0 264.196 73.256 332.854 192.172 68.658 118.918 68.658 265.43 0 384.346z" />
<glyph unicode="&#xe66e;" d="M924 562.77h-297.23v297.23h-229.54v-297.23h-297.23v-229.54h297.23v-297.23h229.54v297.23h297.23z" />
<glyph unicode="&#xe66f;" d="M727.36 383.122h-152.48v-152.476h-117.754v152.476h-152.48v117.754h152.48v152.48h117.754v-152.48h152.48v-117.754zM924 448c0-227.542-184.458-412-412-412s-412 184.458-412 412 184.458 412 412 412 412-184.458 412-412zM844 448c0 183.51-148.516 332-332 332-183.51 0-332-148.518-332-332 0-183.51 148.516-332 332-332 183.51 0 332 148.518 332 332z" />
<glyph unicode="&#xe670;" d="M512 860c-227.542 0-412-184.458-412-412s184.458-412 412-412 412 184.458 412 412-184.458 412-412 412zM765.202 373.136h-178.34v-178.336h-137.722v178.336h-178.34v137.724h178.34v178.34h137.722v-178.338h178.34v-137.726z" />
<glyph unicode="&#xe671;" d="M658.542 36h-293.084v265.458h-265.458v293.084h265.458v265.458h293.082v-265.458h265.46v-293.086h-265.458v-265.456zM445.692 116.234h132.618v265.456h265.458v132.62h-265.46v265.456h-132.618v-265.458h-265.456v-132.62h265.458v-265.454z" />
<glyph unicode="&#xe672;" d="M846.596 658.41h-200.986v200.986l200.986-200.986zM469.226 243.27l143.212 87.806-143.212 87.808v-175.614zM847.366 588.438v-552.438h-670.732v824h399.002v-271.562h271.73zM681 333.078c0 90.030-73.872 163.012-165 163.012-91.126 0-165-72.982-165-163.012s73.874-163.014 165-163.014c91.128 0 165 72.984 165 163.014z" />
</font>
</defs>
</svg>
